<?xml version="1.0" encoding="UTF-8" standalone="no"?>
<svg
   xmlns:dc="http://purl.org/dc/elements/1.1/"
   xmlns:cc="http://creativecommons.org/ns#"
   xmlns:rdf="http://www.w3.org/1999/02/22-rdf-syntax-ns#"
   xmlns:svg="http://www.w3.org/2000/svg"
   xmlns="http://www.w3.org/2000/svg"
   xmlns:sodipodi="http://sodipodi.sourceforge.net/DTD/sodipodi-0.dtd"
   xmlns:inkscape="http://www.inkscape.org/namespaces/inkscape"
   id="Layer_1"
   enable-background="new 0 0 512 512"
   height="512"
   viewBox="0 0 512 512"
   width="512"
   version="1.1"
   sodipodi:docname="lama_säulen.svg"
   inkscape:version="0.92.2 (5c3e80d, 2017-08-06)">
  <metadata
     id="metadata4143">
    <rdf:RDF>
      <cc:Work
         rdf:about="">
        <dc:format>image/svg+xml</dc:format>
        <dc:type
           rdf:resource="http://purl.org/dc/dcmitype/StillImage" />
        <dc:title></dc:title>
      </cc:Work>
    </rdf:RDF>
  </metadata>
  <defs
     id="defs4141" />
  <sodipodi:namedview
     pagecolor="#ffffff"
     bordercolor="#666666"
     borderopacity="1"
     objecttolerance="10"
     gridtolerance="10"
     guidetolerance="10"
     inkscape:pageopacity="0"
     inkscape:pageshadow="2"
     inkscape:window-width="1920"
     inkscape:window-height="1017"
     id="namedview4139"
     showgrid="false"
     inkscape:zoom="1.4142136"
     inkscape:cx="174.80002"
     inkscape:cy="242.67715"
     inkscape:window-x="-8"
     inkscape:window-y="-8"
     inkscape:window-maximized="1"
     inkscape:current-layer="Layer_1" />
  <g
     id="g4136">
    <path
       d="m256 426.753c216.101 0 239.728-109.028 239.728-109.028 3.446-16.367 5.271-33.331 5.271-50.723 0-135.309-109.689-244.998-244.998-244.998s-244.999 109.689-244.999 244.998c0 17.399 1.826 34.369 5.275 50.742.381 1.696 25.33 109.009 239.723 109.009z"
       id="path3922"
       fill="#ffa219" />
    <path
       d="m19.385 326.657c11.153 26.046 58.519 100.096 236.615 100.096 178.099 0 225.463-74.051 236.615-100.096z"
       id="path3924"
       fill="#ff9100" />
    <path
       d="m260.185.877c-2.672-1.169-5.698-1.169-8.37 0l-233.84 102.29h476.05z"
       id="path3926"
       fill="#e9efff" />
    <path
       d="m245.301 103.167v-1.73c-32.007-12.736-28.367-40.448-24.633-53.326 1.029-3.549-.257-7.405-3.314-9.482-6.416-4.36-6.696-11.196-5.97-15.792.223-1.411.089-2.82-.333-4.129l-193.076 84.459z"
       id="path3928"
       fill="#dae2fe" />
    <path
       d="m251.815 28.726-170.175 74.441h348.72l-170.175-74.441c-2.672-1.169-5.698-1.169-8.37 0z"
       id="path3930"
       fill="#dae2fe" />
    <path
       d="m245.301 103.167v-1.73c-32.007-12.736-28.367-40.448-24.633-53.326.551-1.902.419-3.883-.275-5.64l-138.753 60.696z"
       id="path3932"
       fill="#bec8f7" />
    <path
       d="m52.674 244.471h-26.63c-1.818 0-3.517-.538-4.946-1.464l-4.826 74.717c4.435 21.067 11.574 41.135 21.042 59.827h28.997l-8.691-134.545c-1.429.926-3.127 1.465-4.946 1.465z"
       id="path3934"
       fill="#e9efff" />
    <g
       id="g3938">
      <path
         d="m39.36 340.702c-7.693 0-14.628-3.229-19.539-8.398 4.352 15.777 10.235 30.918 17.493 45.248h28.997l-3.287-50.894c-4.574 8.367-13.456 14.044-23.664 14.044z"
         id="path3936"
         fill="#dae2fe" />
    </g>
    <path
       d="m144.277 243.006c-1.429.926-3.128 1.464-4.946 1.464h-26.63c-1.818 0-3.517-.538-4.946-1.464l-8.691 134.544h53.903z"
       id="path3940"
       fill="#e9efff" />
    <g
       id="g3944">
      <path
         d="m126.016 340.702c-10.208 0-19.09-5.676-23.664-14.045l-3.287 50.894h53.903l-3.288-50.894c-4.574 8.368-13.456 14.045-23.664 14.045z"
         id="path3942"
         fill="#dae2fe" />
    </g>
    <path
       d="m230.933 243.006c-1.429.926-3.128 1.464-4.946 1.464h-26.63c-1.818 0-3.517-.538-4.946-1.464l-8.691 134.544h53.903z"
       id="path3946"
       fill="#e9efff" />
    <g
       id="g3950">
      <path
         d="m212.672 340.702c-10.209 0-19.09-5.676-23.664-14.045l-3.288 50.894h53.903l-3.288-50.894c-4.573 8.368-13.455 14.045-23.663 14.045z"
         id="path3948"
         fill="#dae2fe" />
    </g>
    <path
       d="m317.589 243.006c-1.429.926-3.128 1.464-4.946 1.464h-26.63c-1.818 0-3.517-.538-4.946-1.464l-8.691 134.544h53.903z"
       id="path3952"
       fill="#e9efff" />
    <g
       id="g3956">
      <path
         d="m299.328 340.702c-10.209 0-19.09-5.676-23.664-14.045l-3.288 50.894h53.903l-3.287-50.894c-4.574 8.368-13.455 14.045-23.664 14.045z"
         id="path3954"
         fill="#dae2fe" />
    </g>
    <path
       d="m404.245 243.006c-1.429.926-3.128 1.464-4.946 1.464h-26.63c-1.818 0-3.517-.538-4.946-1.464l-8.691 134.544h53.903z"
       id="path3958"
       fill="#e9efff" />
    <g
       id="g3962">
      <path
         d="m385.984 340.702c-10.208 0-19.09-5.676-23.664-14.045l-3.288 50.894h53.903l-3.288-50.894c-4.573 8.368-13.454 14.045-23.663 14.045z"
         id="path3960"
         fill="#dae2fe" />
    </g>
    <path
       d="m490.901 243.006c-1.429.926-3.128 1.464-4.946 1.464h-26.63c-1.818 0-3.517-.538-4.946-1.464l-8.691 134.544h28.997c9.467-18.691 16.606-38.76 21.042-59.826z"
       id="path3964"
       fill="#e9efff" />
    <g
       id="g3968">
      <path
         d="m472.64 340.702c-10.208 0-19.09-5.677-23.664-14.045l-3.288 50.894h28.998c7.258-14.33 13.142-29.471 17.494-45.248-4.911 5.17-11.847 8.399-19.54 8.399z"
         id="path3966"
         fill="#dae2fe" />
    </g>
    <g
       id="g3972">
      <path
         d="m56.383 224.928h-34.047c-2.338 0-4.513-.68-6.357-1.837l.989 15.084c.39 4.724 4.337 8.359 9.077 8.359h26.63c4.74 0 8.687-3.635 9.077-8.359l.988-15.083c-1.844 1.156-4.019 1.836-6.357 1.836z"
         id="path3970"
         fill="#bec8f7" />
    </g>
    <g
       id="g3976">
      <path
         d="m143.039 224.928h-34.046c-2.338 0-4.513-.68-6.357-1.837l.989 15.084c.39 4.724 4.337 8.359 9.077 8.359h26.63c4.74 0 8.687-3.635 9.077-8.359l.988-15.083c-1.845 1.156-4.02 1.836-6.358 1.836z"
         id="path3974"
         fill="#bec8f7" />
    </g>
    <g
       id="g3980">
      <path
         d="m229.695 224.928h-34.046c-2.338 0-4.513-.68-6.357-1.837l.988 15.084c.39 4.724 4.337 8.359 9.077 8.359h26.63c4.74 0 8.687-3.635 9.077-8.359l.988-15.083c-1.844 1.156-4.019 1.836-6.357 1.836z"
         id="path3978"
         fill="#bec8f7" />
    </g>
    <g
       id="g3984">
      <path
         d="m316.351 224.928h-34.046c-2.338 0-4.513-.68-6.357-1.837l.988 15.084c.39 4.724 4.337 8.359 9.077 8.359h26.63c4.74 0 8.687-3.635 9.077-8.359l.988-15.083c-1.844 1.156-4.019 1.836-6.357 1.836z"
         id="path3982"
         fill="#bec8f7" />
    </g>
    <g
       id="g3988">
      <path
         d="m403.007 224.928h-34.046c-2.338 0-4.513-.68-6.357-1.837l.988 15.084c.39 4.724 4.337 8.359 9.077 8.359h26.63c4.74 0 8.687-3.635 9.077-8.359l.988-15.083c-1.844 1.156-4.019 1.836-6.357 1.836z"
         id="path3986"
         fill="#bec8f7" />
    </g>
    <g
       id="g3992">
      <path
         d="m489.663 224.928h-34.046c-2.338 0-4.513-.68-6.357-1.837l.988 15.084c.39 4.724 4.337 8.359 9.077 8.359h26.63c4.74 0 8.687-3.635 9.077-8.359l.988-15.083c-1.844 1.156-4.019 1.836-6.357 1.836z"
         id="path3990"
         fill="#bec8f7" />
    </g>
    <g
       id="g3996">
      <path
         d="m40.348 238.175-.868-13.247h-17.143c-2.338 0-4.513-.68-6.358-1.837l.989 15.084c.39 4.724 4.337 8.359 9.077 8.359h23.38c-4.74 0-8.687-3.635-9.077-8.359z"
         id="path3994"
         fill="#abbaef" />
    </g>
    <g
       id="g4000">
      <path
         d="m127.004 238.175-.868-13.247h-17.144c-2.338 0-4.513-.68-6.357-1.837l.988 15.084c.39 4.724 4.337 8.359 9.077 8.359h23.38c-4.739 0-8.686-3.635-9.076-8.359z"
         id="path3998"
         fill="#abbaef" />
    </g>
    <g
       id="g4004">
      <path
         d="m213.66 238.175-.868-13.247h-17.144c-2.338 0-4.513-.68-6.357-1.837l.988 15.084c.39 4.724 4.337 8.359 9.077 8.359h23.38c-4.738 0-8.686-3.635-9.076-8.359z"
         id="path4002"
         fill="#abbaef" />
    </g>
    <g
       id="g4008">
      <path
         d="m300.316 238.175-.868-13.247h-17.144c-2.338 0-4.513-.68-6.357-1.837l.989 15.084c.39 4.724 4.337 8.359 9.077 8.359h23.38c-4.739 0-8.687-3.635-9.077-8.359z"
         id="path4006"
         fill="#abbaef" />
    </g>
    <g
       id="g4012">
      <path
         d="m386.973 238.175-.868-13.247h-17.144c-2.338 0-4.513-.68-6.357-1.837l.989 15.084c.39 4.724 4.337 8.359 9.077 8.359h23.381c-4.741 0-8.689-3.635-9.078-8.359z"
         id="path4010"
         fill="#abbaef" />
    </g>
    <g
       id="g4016">
      <path
         d="m473.629 238.175-.868-13.247h-17.144c-2.338 0-4.513-.68-6.357-1.837l.988 15.084c.39 4.724 4.337 8.359 9.077 8.359h23.38c-4.739 0-8.686-3.635-9.076-8.359z"
         id="path4014"
         fill="#abbaef" />
    </g>
    <path
       d="m60.068 414.102h391.864c9.065-12.055 17.033-24.978 23.779-38.614h-439.422c6.746 13.636 14.714 26.559 23.779 38.614z"
       id="path4018"
       fill="#bec8f7" />
    <path
       d="m138.814 405.878c-9.314-13.519.391-30.39 15.461-30.39h-117.986c6.746 13.636 14.714 26.559 23.779 38.614h94.465c-6.27 0-12.162-3.061-15.719-8.224z"
       id="path4020"
       fill="#abbaef" />
    <path
       d="m8.429 123.139h495.141v46.003h-495.141z"
       id="path4022"
       fill="#dae2fe" />
    <g
       id="g4026">
      <path
         d="m16.222 173.163c-4.274 0-7.737-3.464-7.737-7.737v-39.717c0-4.274 3.464-7.737 7.737-7.737 4.274 0 7.737 3.464 7.737 7.737v39.717c0 4.274-3.464 7.737-7.737 7.737z"
         id="path4024"
         fill="#abbaef" />
    </g>
    <g
       id="g4030">
      <path
         d="m53.112 173.163c-4.274 0-7.737-3.464-7.737-7.737v-39.717c0-4.274 3.464-7.737 7.737-7.737 4.274 0 7.737 3.464 7.737 7.737v39.717c.001 4.274-3.463 7.737-7.737 7.737z"
         id="path4028"
         fill="#abbaef" />
    </g>
    <g
       id="g4034">
      <path
         d="m90.003 173.163c-4.274 0-7.737-3.464-7.737-7.737v-39.717c0-4.274 3.464-7.737 7.737-7.737s7.737 3.464 7.737 7.737v39.717c0 4.274-3.464 7.737-7.737 7.737z"
         id="path4032"
         fill="#abbaef" />
    </g>
    <g
       id="g4038">
      <path
         d="m126.893 173.163c-4.274 0-7.737-3.464-7.737-7.737v-39.717c0-4.274 3.464-7.737 7.737-7.737 4.274 0 7.737 3.464 7.737 7.737v39.717c.001 4.274-3.463 7.737-7.737 7.737z"
         id="path4036"
         fill="#abbaef" />
    </g>
    <g
       id="g4042">
      <path
         d="m163.783 173.163c-4.274 0-7.737-3.464-7.737-7.737v-39.717c0-4.274 3.464-7.737 7.737-7.737s7.737 3.464 7.737 7.737v39.717c0 4.274-3.464 7.737-7.737 7.737z"
         id="path4040"
         fill="#bec8f7" />
    </g>
    <g
       id="g4046">
      <path
         d="m200.673 173.163c-4.274 0-7.737-3.464-7.737-7.737v-39.717c0-4.274 3.464-7.737 7.737-7.737s7.737 3.464 7.737 7.737v39.717c.001 4.274-3.463 7.737-7.737 7.737z"
         id="path4044"
         fill="#bec8f7" />
    </g>
    <g
       id="g4050">
      <path
         d="m237.564 173.163c-4.274 0-7.737-3.464-7.737-7.737v-39.717c0-4.274 3.464-7.737 7.737-7.737s7.737 3.464 7.737 7.737v39.717c0 4.274-3.464 7.737-7.737 7.737z"
         id="path4048"
         fill="#bec8f7" />
    </g>
    <g
       id="g4054">
      <path
         d="m274.454 173.163c-4.274 0-7.737-3.464-7.737-7.737v-39.717c0-4.274 3.464-7.737 7.737-7.737s7.737 3.464 7.737 7.737v39.717c0 4.274-3.463 7.737-7.737 7.737z"
         id="path4052"
         fill="#bec8f7" />
    </g>
    <g
       id="g4058">
      <path
         d="m311.345 173.163c-4.274 0-7.737-3.464-7.737-7.737v-39.717c0-4.274 3.464-7.737 7.737-7.737s7.737 3.464 7.737 7.737v39.717c0 4.274-3.464 7.737-7.737 7.737z"
         id="path4056"
         fill="#bec8f7" />
    </g>
    <g
       id="g4062">
      <path
         d="m348.235 173.163c-4.274 0-7.737-3.464-7.737-7.737v-39.717c0-4.274 3.464-7.737 7.737-7.737s7.737 3.464 7.737 7.737v39.717c.001 4.274-3.463 7.737-7.737 7.737z"
         id="path4060"
         fill="#bec8f7" />
    </g>
    <g
       id="g4066">
      <path
         d="m385.125 173.163c-4.274 0-7.737-3.464-7.737-7.737v-39.717c0-4.274 3.464-7.737 7.737-7.737s7.737 3.464 7.737 7.737v39.717c0 4.274-3.464 7.737-7.737 7.737z"
         id="path4064"
         fill="#bec8f7" />
    </g>
    <g
       id="g4070">
      <path
         d="m422.015 173.163c-4.274 0-7.737-3.464-7.737-7.737v-39.717c0-4.274 3.464-7.737 7.737-7.737s7.737 3.464 7.737 7.737v39.717c.001 4.274-3.463 7.737-7.737 7.737z"
         id="path4068"
         fill="#bec8f7" />
    </g>
    <g
       id="g4074">
      <path
         d="m458.906 173.163c-4.274 0-7.737-3.464-7.737-7.737v-39.717c0-4.274 3.464-7.737 7.737-7.737s7.737 3.464 7.737 7.737v39.717c0 4.274-3.463 7.737-7.737 7.737z"
         id="path4072"
         fill="#bec8f7" />
    </g>
    <g
       id="g4078">
      <path
         d="m495.796 173.163c-4.274 0-7.737-3.464-7.737-7.737v-39.717c0-4.274 3.464-7.737 7.737-7.737 4.274 0 7.737 3.464 7.737 7.737v39.717c.001 4.274-3.463 7.737-7.737 7.737z"
         id="path4076"
         fill="#bec8f7" />
    </g>
    <path
       d="m452.704 413.07h-393.407c7.214 9.698 15.124 18.847 23.663 27.367h346.08c8.539-8.52 16.45-17.669 23.664-27.367z"
       id="path4080"
       fill="#dae2fe" />
    <path
       d="m150.17 413.07h-90.874c7.214 9.698 15.124 18.847 23.663 27.367h67.46c-3.705 0-7.252-1.513-9.811-4.191-8.735-9.142-2.136-23.176 9.562-23.176z"
       id="path4082"
       fill="#bec8f7" />
    <path
       d="m56.383 204.04h-34.046c-6.623 0-11.992 5.369-11.992 11.992s5.369 11.992 11.992 11.992h34.046c6.623 0 11.992-5.369 11.992-11.992-.001-6.624-5.369-11.992-11.992-11.992z"
       id="path4084"
       fill="#e9efff" />
    <path
       d="m37.296 216.031c0-6.623 5.369-11.992 11.992-11.992h-26.951c-6.623 0-11.992 5.369-11.992 11.992s5.369 11.992 11.992 11.992h26.952c-6.624 0-11.993-5.369-11.993-11.992z"
       id="path4086"
       fill="#dae2fe" />
    <path
       d="m503.57 165.426h-495.141c-2.859 0-5.176 2.318-5.176 5.177v28.261c0 2.859 2.318 5.177 5.176 5.177h495.141c2.859 0 5.177-2.318 5.177-5.177v-28.261c0-2.86-2.318-5.177-5.177-5.177z"
       id="path4088"
       fill="#e9efff" />
    <path
       d="m503.57 101.436h-495.141c-2.859 0-5.176 2.318-5.176 5.176v13.919c0 2.859 2.318 5.176 5.176 5.176h495.141c2.859 0 5.177-2.318 5.177-5.176v-13.919c0-2.858-2.318-5.176-5.177-5.176z"
       id="path4090"
       fill="#e9efff" />
    <path
       d="m126.893 198.863v-28.261c0-2.859 2.318-5.177 5.177-5.177h-123.64c-2.859 0-5.177 2.318-5.177 5.177v28.261c0 2.859 2.318 5.177 5.177 5.177h123.64c-2.859 0-5.177-2.318-5.177-5.177z"
       id="path4092"
       fill="#dae2fe" />
    <path
       d="m126.893 120.532v-13.919c0-2.859 2.318-5.176 5.177-5.176h-123.64c-2.859 0-5.177 2.318-5.177 5.176v13.919c0 2.859 2.318 5.176 5.177 5.176h123.64c-2.859 0-5.177-2.317-5.177-5.176z"
       id="path4094"
       fill="#dae2fe" />
    <path
       d="m104.868 459.842v-21.985h-24.436c7.645 7.855 15.802 15.209 24.436 21.985z"
       id="path4096"
       fill="#abbaef" />
    <path
       d="m147.164 486.539c14.073 6.99 28.912 12.666 44.36 16.869v-65.551h-44.36z"
       id="path4098"
       fill="#dae2fe" />
    <path
       d="m278.18 437.857h-44.36v73.133c7.307.656 14.702 1.01 22.18 1.01s14.872-.354 22.18-1.01z"
       id="path4100"
       fill="#dae2fe" />
    <path
       d="m320.476 503.408c15.448-4.203 30.286-9.879 44.36-16.869v-48.682h-44.36z"
       id="path4102"
       fill="#dae2fe" />
    <path
       d="m407.132 459.842c8.634-6.776 16.79-14.13 24.436-21.985h-24.436z"
       id="path4104"
       fill="#dae2fe" />
    <path
       d="m103.836 459.016c13.676 10.852 28.538 20.269 44.36 28.035v-49.194h-44.36z"
       id="path4106"
       fill="#bec8f7" />
    <g
       id="g4116"
       fill="#e9efff">
      <path
         d="m190.492 503.129c14.304 3.96 29.133 6.65 44.36 7.953v-73.224h-44.36z"
         id="path4108" />
      <path
         d="m277.148 511.082c15.227-1.302 30.056-3.993 44.36-7.953v-65.272h-44.36z"
         id="path4110" />
      <path
         d="m363.804 487.052c15.822-7.766 30.684-17.183 44.36-28.035v-21.159h-44.36z"
         id="path4112" />
      <path
         d="m143.039 204.04h-34.046c-6.623 0-11.992 5.369-11.992 11.992s5.369 11.992 11.992 11.992h34.046c6.623 0 11.992-5.369 11.992-11.992 0-6.624-5.369-11.992-11.992-11.992z"
         id="path4114" />
    </g>
    <path
       d="m123.952 216.031c0-6.623 5.369-11.992 11.992-11.992h-26.952c-6.623 0-11.992 5.369-11.992 11.992s5.369 11.992 11.992 11.992h26.952c-6.623 0-11.992-5.369-11.992-11.992z"
       id="path4118"
       fill="#dae2fe" />
    <path
       d="m229.695 204.04h-34.046c-6.623 0-11.992 5.369-11.992 11.992s5.369 11.992 11.992 11.992h34.046c6.623 0 11.992-5.369 11.992-11.992 0-6.624-5.369-11.992-11.992-11.992z"
       id="path4120"
       fill="#e9efff" />
    <path
       d="m210.609 216.031c0-6.623 5.369-11.992 11.992-11.992h-26.952c-6.623 0-11.992 5.369-11.992 11.992s5.369 11.992 11.992 11.992h26.951c-6.623 0-11.991-5.369-11.991-11.992z"
       id="path4122"
       fill="#dae2fe" />
    <path
       d="m316.351 204.04h-34.046c-6.623 0-11.992 5.369-11.992 11.992s5.369 11.992 11.992 11.992h34.046c6.623 0 11.992-5.369 11.992-11.992 0-6.624-5.369-11.992-11.992-11.992z"
       id="path4124"
       fill="#e9efff" />
    <path
       d="m297.265 216.031c0-6.623 5.369-11.992 11.992-11.992h-26.952c-6.623 0-11.991 5.369-11.991 11.992s5.369 11.992 11.991 11.992h26.952c-6.624 0-11.992-5.369-11.992-11.992z"
       id="path4126"
       fill="#dae2fe" />
    <path
       d="m403.007 204.04h-34.046c-6.623 0-11.992 5.369-11.992 11.992s5.369 11.992 11.992 11.992h34.046c6.623 0 11.992-5.369 11.992-11.992 0-6.624-5.369-11.992-11.992-11.992z"
       id="path4128"
       fill="#e9efff" />
    <path
       d="m383.921 216.031c0-6.623 5.369-11.992 11.992-11.992h-26.952c-6.623 0-11.991 5.369-11.991 11.992s5.369 11.992 11.991 11.992h26.952c-6.623 0-11.992-5.369-11.992-11.992z"
       id="path4130"
       fill="#dae2fe" />
    <path
       d="m489.663 204.04h-34.046c-6.623 0-11.992 5.369-11.992 11.992s5.369 11.992 11.992 11.992h34.046c6.623 0 11.992-5.369 11.992-11.992 0-6.624-5.369-11.992-11.992-11.992z"
       id="path4132"
       fill="#e9efff" />
    <path
       d="m470.577 216.031c0-6.623 5.369-11.992 11.992-11.992h-26.952c-6.623 0-11.991 5.369-11.991 11.992s5.369 11.992 11.991 11.992h26.952c-6.623 0-11.992-5.369-11.992-11.992z"
       id="path4134"
       fill="#dae2fe" />
  </g>
  <g
     inkscape:groupmode="layer"
     id="layer1"
     inkscape:label="Lama" />
  <g
     transform="matrix(-0.7354691,0,0,0.7354691,729.09846,-47.051188)"
     id="Layer_4">
    <path
       style="fill:#9a8479;fill-rule:evenodd;stroke:#9a8479;stroke-width:1;stroke-linecap:round;stroke-linejoin:round"
       inkscape:connector-curvature="0"
       d="m 439.109,303.387 c -0.668,-0.363 -1.159,-1.413 -1.848,-1.733 -1.261,-0.585 -3.302,0.095 -4.621,-0.346 -1.167,-0.39 -2.262,-1.936 -3.465,-2.195 -1.788,-0.384 -4.204,0.727 -6.006,1.04 -0.797,0.138 -1.876,0.25 -2.657,0.462 -2.086,0.567 -4.573,2.264 -6.699,2.657 -1.534,0.283 -3.866,-0.811 -5.198,0 -0.889,0.54 -0.927,2.346 -1.733,3.003 -0.985,0.803 -3.122,0.393 -4.042,1.271 -0.857,0.817 -0.745,2.7 -1.387,3.696 -1.088,1.689 -4.147,2.737 -4.851,4.62 -0.449,1.203 1.005,3.249 0.231,4.274 -0.709,0.939 -2.895,0.186 -3.812,0.924 -1.33,1.069 -2.156,3.498 -2.31,5.198 -0.115,1.272 1.051,2.886 0.924,4.158 -0.089,0.896 -1.188,1.872 -1.155,2.772 0.032,0.852 1.165,1.695 1.271,2.541 0.159,1.276 -1.518,2.965 -1.04,4.159 0.515,1.285 3.233,1.227 3.927,2.425 0.367,0.632 -0.278,1.902 0.232,2.426 0.702,0.722 2.637,-0.482 3.349,0.231 0.712,0.712 -0.4,2.564 0.231,3.349 0.481,0.598 1.876,0.274 2.426,0.809 0.935,0.909 0.203,3.408 1.271,4.158 0.454,0.319 1.417,-0.236 1.848,0.116 0.816,0.666 -0.183,2.735 0.577,3.465 1.925,1.849 6.263,-0.68 8.894,-0.231 9.399,1.604 23.144,5.348 29.092,12.801 6.122,7.671 6.617,22.338 6.109,32.139 -0.76,14.646 -10.154,32.684 -14.991,46.529 -3.279,9.384 -10.104,21.203 -11.634,31.025 -0.645,4.139 -0.421,9.827 0.258,13.961 0.697,4.246 2.765,9.666 4.345,13.668 1.381,3.499 3.966,7.842 5.368,11.333 0.67,1.667 1.65,3.894 1.939,5.667 0.237,1.457 -0.62,3.582 0,4.921 0.775,1.674 3.968,2.218 4.772,3.878 0.683,1.41 -0.611,3.85 0.149,5.219 0.609,1.096 2.784,1.312 3.43,2.386 1.339,2.227 -1.26,6.691 0.447,8.649 0.679,0.779 2.692,0.196 3.281,1.044 1.057,1.523 -1.373,4.324 -0.895,6.115 0.281,1.051 1.735,1.925 2.122,2.942 0.515,1.35 -0.288,3.541 0.424,4.798 0.55,0.973 2.351,1.323 2.963,2.258 0.878,1.341 0.536,3.733 1.129,5.222 0.661,1.659 1.541,4.217 3.105,5.08 1.929,1.064 5.137,-0.196 7.338,-0.282 3.218,-0.125 7.505,-0.441 10.725,-0.423 1.017,0.005 2.382,0.293 3.387,0.141 1.975,-0.299 4.706,-1.086 6.21,-2.399 1.598,-1.396 3.236,-4.093 3.387,-6.21 0.18,-2.541 -2.308,-5.483 -3.105,-7.903 -0.398,-1.209 -0.66,-2.908 -1.129,-4.092 -0.564,-1.427 -1.963,-3.045 -2.399,-4.516 -0.387,-1.305 -0.029,-3.214 -0.424,-4.516 -0.29,-0.961 -1.22,-2.016 -1.552,-2.964 -1.077,-3.074 -0.646,-7.641 -1.693,-10.725 -0.506,-1.488 -1.869,-3.178 -2.399,-4.657 -1.121,-3.126 -1.604,-7.585 -2.117,-10.866 -0.5,-3.202 -0.049,-7.725 -1.27,-10.726 -1.003,-2.463 -5.426,-4.427 -5.328,-7.085 0.094,-2.536 3.982,-4.392 5.521,-6.41 2.102,-2.757 4.6,-6.659 6.41,-9.616 1.885,-3.08 4.478,-7.176 5.876,-10.505 0.628,-1.496 0.568,-3.915 1.603,-5.164 1.188,-1.435 4.54,-1.264 5.519,-2.849 0.815,-1.319 -0.57,-3.807 0.179,-5.164 0.951,-1.726 4.508,-1.87 5.519,-3.561 0.854,-1.428 0.096,-3.915 0.535,-5.52 2.965,-10.857 16.506,-21.807 17.89,-32.976 1.386,-11.186 -4.912,-26.023 -9.318,-36.397 -7.785,-18.334 -23.343,-40.383 -35.851,-55.885 -5.227,-6.478 -13.533,-13.931 -19.333,-19.901 0,0 0,0 0,0 -0.074,-0.029 -7.29,-0.267 -9.951,-1.713 z"
       id="path4231" />
    <path
       style="fill:none;stroke:#b29c8e;stroke-width:1;stroke-linecap:round;stroke-linejoin:round"
       inkscape:connector-curvature="0"
       d="m 457.101,560.418 c 0.512,2.561 2.841,3.662 5.392,2.795 1.39,-0.473 0.444,-2.08 2.439,-0.975 0.031,0.016 0.066,0.028 0.102,0.039 0.036,0.014 0.072,0.024 0.108,0.033 0.034,0.011 0.068,0.018 0.097,0.024 0.085,0.019 0.046,0.011 0.099,0.022 0,0.054 0,0.108 0,0.162 2.202,-1.18 2.647,1.051 4.053,0.73 1.2,-0.274 0.723,-1.929 1.599,-1.861 0.731,1.192 2.321,0.969 3.392,0.969 m -4.522,-13.405 c 1.135,-0.034 2.364,0.324 3.553,0.324 m -17.765,0.484 c 0.482,0.146 0.849,0.56 1.344,0.645 0.66,0.113 1.649,-0.163 2.37,-0.161 2.79,-0.727 3.851,1.2 5.733,1.124 0.506,-0.021 1.431,0.097 1.374,-0.639 m -17.281,-1.615 c 1.372,0.225 1.559,1.981 2.626,2.582 0.893,0.503 2.071,-0.075 2.865,0.81 m 10.497,-15.182 c 0.651,-0.029 1.079,0.659 1.7,0.749 0.876,0.128 1.683,-0.404 2.661,-0.102 m -18.573,-0.323 c 3.893,3.779 6.73,1.292 11.144,1.291 m -18.573,-2.745 c 0.634,1.948 1.438,3.469 3.672,3.561 0.024,10e-4 0.047,10e-4 0.071,10e-4 0.098,-10e-4 0.197,-0.004 0.295,-0.009 0,0.054 0,0.108 0,0.161 m 11.928,-12.308 c 0.974,0 1.796,1.132 2.636,1.492 1.231,0.527 2.239,-0.606 2.998,-1.364 m -14.595,-2.049 c -0.494,1.316 -0.649,4.665 1.633,4.322 1.159,-0.174 1.775,-1.272 2.739,-1.792 0.088,0.067 0.173,0.137 0.257,0.208 1.029,0.95 0.976,1.914 2.54,2.383 m -17.795,-3.2 c 0.578,0.867 1.931,2.847 3.187,2.623 0.903,-0.161 2.632,-5.33 3.28,-1.424 0.062,0.375 0.062,0.758 0.062,1.136 0.431,0.097 0.839,0.114 1.28,0.097 m 1.736,-14.684 c 0.741,0.278 1.209,1.04 1.957,1.31 1.362,0.49 3.987,-0.727 3.813,-2.398 -0.004,-0.026 -0.01,-0.054 -0.017,-0.082 -0.006,-0.029 -0.013,-0.058 -0.022,-0.087 -0.006,-0.027 -0.015,-0.055 -0.024,-0.081 -0.007,-0.026 -0.015,-0.049 -0.022,-0.069 -0.016,-0.05 -0.01,-0.033 -0.022,-0.066 -0.037,0 -0.075,10e-4 -0.113,0 m -20.275,1.133 c 2.904,-2.904 3.795,2.306 5.007,2.86 1.583,0.723 2.493,-1.154 3.223,-2.056 0.081,-0.085 0.162,-0.169 0.246,-0.25 0.102,0.052 0.201,0.108 0.301,0.165 0.049,0.027 0.1,0.059 0.146,0.091 1.846,1.398 1.498,4.222 4.443,4.174 0,-0.075 0,-0.151 0,-0.227 m 10.534,-5.89 c -0.52,2.971 3.975,3.245 4.417,0.567 m -4.983,-13.139 c 0.299,1.233 1.646,1.546 2.686,1.038 0.259,-0.126 0.76,-0.754 1.058,-0.653 0.322,0.108 0.353,0.698 0.446,0.974 m -29.336,-0.453 c 0.98,0.98 1.873,2.168 3.434,1.585 0.707,-0.264 1.346,-1.201 2.168,-1.095 1.153,0.147 1.706,1.736 2.873,1.888 0.766,0.099 3.495,0.187 4.199,0.078 0.562,-0.088 1.232,-0.919 1.769,-0.835 1.212,0.189 1.524,2.571 3,2.457 m -10.484,-20.335 c 2.558,4.091 3.852,1.922 7.597,1.739 1.746,-0.086 5.213,0.446 6.965,0.823 1.846,0.397 2.085,3.642 4.8,2.008 m -2.374,-16.366 c 0.865,2.286 1.584,4.039 4.35,4.281 0.728,0.064 1.855,-0.443 2.503,-0.198 1.486,0.562 1.996,1.947 3.878,1.847 M 454.328,463 c 1.063,0.355 1.664,1.734 2.548,2.359 1.53,1.081 3.434,1.144 4.794,2.442 m 2.259,-4.377 c 1.776,0 2.789,2.518 4.179,3.387 1.631,1.021 5.678,0.561 7.628,0.566 0.68,0.002 1.719,0.216 2.313,-0.141 m 2.965,-12.566 c 0.661,0 1.446,1.8 1.998,2.185 0.915,0.641 2.449,0.356 3.509,0.357 m -14.967,-5.084 c -0.054,2.944 1.992,3.438 4.161,4.044 0.441,0.123 1.23,0.651 1.628,0.616 m -0.847,-16.238 c 0.965,0 1.484,1.728 2.249,2.158 1.04,0.584 2.26,-0.189 3.116,0.666 m 2.683,-3.388 c 0.339,2.179 1.552,1.619 3.056,2.389 0.831,0.425 1.06,1.43 1.799,1.85 0.68,0.387 1.742,-0.004 2.487,-0.004 m -5.224,-11.86 c 0.816,1.634 2.977,0.566 4.158,1.325 0.795,0.511 1.056,2.176 2.337,2.064"
       id="path4233" />
    <path
       style="fill:#baa393;fill-rule:evenodd;stroke:none"
       inkscape:connector-curvature="0"
       d="m 485.824,427.479 c 3.258,-1.016 7.961,-0.183 11.373,-0.262 0,0.001 -0.051,4.417 0.261,6.275 0.156,0.928 0.693,2.09 0.854,3.017 0.457,2.639 0.6,6.247 0.402,8.917 -0.132,1.786 -0.993,4.08 -1.093,5.868 -0.085,1.52 -0.043,3.591 0.345,5.063 0.282,1.067 1.738,2.247 1.553,3.336 -0.122,0.724 -1.312,1.171 -1.61,1.841 -0.479,1.076 -0.499,2.744 -0.345,3.912 0.219,1.672 1.581,3.62 2.01,5.251 0.521,1.983 1.352,4.746 0.98,6.762 -0.101,0.543 -0.66,1.127 -0.784,1.665 -0.369,1.606 -0.03,3.856 0.196,5.488 0.173,1.257 0.8,2.859 0.98,4.115 0.703,4.929 0.265,11.613 0.413,16.589 0.254,8.551 0.745,19.947 1.002,28.498 0.067,2.211 0.058,5.163 0.192,7.37 0.117,1.929 0.51,4.483 0.605,6.413 0.158,3.191 0,7.454 0,10.648 0,3.666 -0.742,8.631 0,12.221 0.356,1.723 0.814,4.334 2.178,5.445 2.966,2.416 8.884,0.903 12.705,1.089 2.393,0.117 5.915,1.327 7.986,0.121 1.463,-0.852 2.257,-3.275 2.904,-4.84 1.691,-4.085 2.222,-10.075 3.146,-14.399 1.077,-5.04 2.567,-11.751 3.509,-16.819 0.5,-2.689 0.5,-6.445 1.491,-8.994 0.338,-0.868 1.303,-1.779 1.598,-2.663 1.095,-3.276 -0.698,-8.274 0.533,-11.501 0.537,-1.409 2.432,-2.643 2.982,-4.047 2.108,-5.389 0.656,-13.489 0.745,-19.276 0.113,-7.4 -0.335,-17.27 -0.23,-24.671 0.045,-3.194 0.254,-7.45 0.363,-10.642 0,10e-4 1.174,8.28 1.451,11.851 0.513,6.622 0.386,15.493 0.604,22.131 0.157,4.754 0.161,11.107 0.605,15.843 0.216,2.298 0.906,5.317 1.089,7.619 0.191,2.412 0.81,5.745 0.125,8.066 -0.151,0.512 -0.736,1.032 -0.882,1.545 -0.455,1.593 0.02,3.865 0.11,5.518 0.1,1.859 0.308,4.334 0.552,6.18 0.439,3.335 1.274,7.748 1.986,11.036 0.405,1.867 1.036,4.337 1.545,6.179 1.173,4.245 2.868,9.873 4.316,14.032 0.795,2.283 1.113,5.889 2.898,7.519 1.328,1.212 3.939,1.539 5.718,1.801 3.419,0.504 8.365,1.033 11.514,-0.392 1.075,-0.486 2.348,-1.617 2.898,-2.662 1.588,-3.022 0.535,-7.948 0.704,-11.357 0.161,-3.233 0.327,-7.547 0.402,-10.783 0.083,-3.553 0.007,-8.294 0.107,-11.847 0.059,-2.115 0.234,-4.931 0.32,-7.044 0.149,-3.682 -0.153,-8.636 0.427,-12.275 0.041,-0.26 0.129,-0.603 0.213,-0.854 0.538,-1.602 1.968,-3.475 2.348,-5.123 0.67,-2.901 0.374,-6.972 0,-9.926 -0.097,-0.765 -0.471,-1.741 -0.573,-2.505 -0.244,-1.826 -0.353,-4.309 -0.15,-6.14 0.176,-1.587 1.03,-3.59 1.273,-5.167 0.549,-3.557 0.705,-8.385 0.599,-11.982 -0.033,-1.138 -0.517,-2.651 -0.354,-3.777 0.149,-1.031 1.143,-2.197 1.276,-3.231 0.155,-1.199 -0.498,-2.788 -0.511,-3.997 -0.012,-1.206 0.309,-2.797 0.426,-3.997 0.171,-1.759 0.061,-4.159 0.51,-5.868 0.143,-0.545 0.427,-1.253 0.723,-1.732 0.437,-0.707 1.504,-1.314 1.836,-2.076 0.9,-2.064 0.021,-5.261 0.239,-7.503 0.148,-1.52 0.126,-3.657 0.799,-5.028 1.312,-2.676 5.585,-4.38 7.104,-6.945 0.684,-1.155 0.767,-3.061 1.367,-4.262 1.018,-2.04 3.379,-4.141 4.491,-6.13 0.809,-1.447 1.633,-3.517 2.125,-5.099 0.615,-1.98 0.389,-4.956 1.398,-6.767 0.633,-1.137 2.464,-1.914 3.067,-3.068 1.106,-2.118 0.438,-5.591 1.096,-7.888 0.454,-1.585 1.854,-3.426 2.191,-5.04 0.349,-1.673 -0.569,-4.085 0,-5.697 0.328,-0.929 1.688,-1.685 1.972,-2.629 0.534,-1.773 -0.68,-4.284 -0.657,-6.135 0.039,-3.189 0.947,-7.383 1.534,-10.518 0.384,-2.053 1.332,-4.713 1.533,-6.792 0.344,-3.557 0.272,-8.414 -0.513,-11.9 -0.334,-1.487 -1.627,-3.223 -1.851,-4.73 -0.226,-1.531 0.482,-3.596 0.412,-5.142 -0.109,-2.381 -0.924,-5.488 -1.44,-7.815 -0.787,-3.55 -1.997,-8.253 -3.085,-11.722 -1.337,-4.266 -3.637,-9.776 -5.141,-13.985 -1.012,-2.83 -2.644,-6.526 -3.291,-9.461 -0.68,-3.087 -0.765,-7.338 -1.028,-10.488 -0.537,-6.409 -0.956,-14.976 -1.44,-21.389 -0.23,-3.05 -0.902,-7.103 -0.837,-10.16 0.025,-1.179 0.492,-2.73 0.422,-3.907 -0.067,-1.136 -0.649,-2.576 -0.845,-3.696 -0.329,-1.885 -1.195,-4.477 -0.739,-6.335 0.623,-2.535 4.081,-4.658 5.068,-7.074 0.898,-2.197 1.165,-5.44 1.248,-7.812 0.154,-4.368 -0.248,-10.305 -1.505,-14.49 -1.526,-5.08 -4.875,-11.554 -8.28,-15.62 -4.293,-5.125 -11.451,-11.151 -17.69,-13.55 -5.238,-2.014 -13.041,-1.185 -18.63,-1.693 -3.568,3.793 -8.958,8.341 -11.893,12.642 -3.212,4.708 -6.404,11.745 -8.089,17.189 -0.584,1.887 -0.174,4.791 -1.213,6.471 -0.339,0.549 -1.347,0.831 -1.618,1.416 -0.536,1.157 -0.358,3.1 0.202,4.246 0.396,0.811 1.838,1.208 2.225,2.023 0.729,1.534 1.139,4.401 0,5.662 -0.296,0.328 -1.181,0.03 -1.416,0.404 -0.622,0.993 1.027,2.535 1.416,3.64 0.401,1.141 1.015,2.65 1.213,3.842 0.448,2.693 -0.016,6.37 0,9.1 0.054,8.98 0.846,20.96 0.405,29.929 -0.207,4.214 -0.49,9.881 -1.451,13.99 -0.575,2.459 -0.747,6.512 -2.841,7.924 -1.822,1.229 -5.167,0.265 -7.326,-0.15 -3.696,-0.71 -8.113,-3.374 -11.661,-4.634 -3.234,-1.15 -7.553,-2.739 -10.914,-3.439 -6.13,-1.277 -14.52,-2.024 -20.781,-1.943 -8.271,0.106 -19.343,1.394 -27.359,3.438 -5.03,1.283 -11.548,3.793 -16.173,6.151 -3.785,1.928 -9.087,4.502 -11.881,7.701 -1.321,1.511 -1.616,4.568 -3.081,5.94 -0.646,0.606 -1.942,0.776 -2.64,1.32 -1.407,1.097 -2.747,3.141 -3.741,4.621 -0.758,1.128 -1.414,2.852 -2.2,3.961 -1.028,1.448 -3.149,2.821 -3.961,4.4 -1.047,2.038 -1.21,5.214 -1.54,7.481 -0.21,1.443 -0.253,3.395 -0.44,4.841 -0.395,3.056 -1.027,7.128 -1.76,10.121 -0.375,1.533 -1.092,3.516 -1.553,5.025 -0.858,2.81 -2.495,6.458 -2.824,9.377 -0.168,1.483 0.392,3.487 0.226,4.97 -0.221,1.962 -1.739,4.354 -1.808,6.326 -0.09,2.605 1.039,6.02 1.921,8.473 0.446,1.241 1.566,2.683 1.92,3.954 0.235,0.845 0.46,2.045 0.307,2.909 -0.175,0.991 -1.279,2.02 -1.501,3.002 -0.427,1.895 -0.727,4.847 0.347,6.465 0.446,0.674 1.875,0.704 2.309,1.386 1.152,1.812 -0.714,5.133 0,7.158 0.239,0.68 1.171,1.274 1.385,1.963 0.392,1.258 -0.164,3.071 -0.231,4.387 -0.109,2.147 -0.416,5.009 -0.346,7.158 0.035,1.06 0.39,2.456 0.365,3.516 -0.025,1.054 -0.555,2.422 -0.527,3.476 0.047,1.717 1.598,3.899 1.264,5.584 -0.568,2.872 -4.715,5.063 -6.005,7.691 -0.969,1.975 -0.879,5.131 -1.892,7.083 -1.45,2.795 -5.238,5.245 -6.864,7.941 -1.92,3.186 -3.796,7.912 -4.442,11.575 -0.694,3.938 0.274,9.327 0.27,13.325 -0.005,3.957 -0.152,9.231 -0.298,13.184 -0.11,2.997 -0.734,6.993 -0.502,9.982 0.034,0.438 0.111,1.027 0.251,1.444 0.205,0.607 0.993,1.243 1.004,1.883 0.016,0.851 -1.105,1.687 -1.318,2.511 -0.329,1.277 0.002,3.076 0,4.395 -0.002,1.46 0.036,3.407 -0.011,4.867 -0.01,0.289 0.127,0.736 -0.054,0.962 -0.326,0.407 -1.335,-0.042 -1.711,0.321 -0.813,0.784 -0.611,2.627 -0.427,3.742 0.172,1.048 1.248,2.176 1.497,3.208 0.349,1.451 0.087,3.481 0.107,4.973 0.013,1.033 0.024,2.411 0.018,3.445 -0.013,2.55 -0.047,5.952 -0.151,8.5 -0.103,2.485 0.417,5.974 -0.531,8.273 -0.218,0.526 -0.956,0.979 -1.139,1.518 -0.456,1.337 0.029,3.306 0.228,4.705 0.257,1.81 0.236,4.546 1.442,5.92 2.142,2.441 7.096,2.887 10.321,3.263 3.312,0.386 7.974,0.375 11.081,-0.834 2.542,-0.99 5.368,-3.529 7.21,-5.541 0.959,-1.047 2.202,-2.583 2.623,-3.939 0.548,-1.759 0.023,-4.3 0,-6.143 -0.057,-4.692 -0.362,-10.945 -0.418,-15.637 -0.017,-1.382 -0.354,-3.271 0,-4.608 0.095,-0.362 0.441,-0.761 0.558,-1.117 0.364,-1.112 0.545,-2.695 0.527,-3.865 -0.012,-0.804 -0.275,-1.857 -0.415,-2.649 -0.113,-0.641 -0.565,-1.496 -0.416,-2.13 0.214,-0.905 1.505,-1.586 1.974,-2.389 1.085,-1.855 1.914,-4.657 2.39,-6.753 0.521,-2.3 0.647,-5.467 0.815,-7.819 0.275,-3.863 -0.47,-9.139 0.45,-12.901 0.373,-1.527 1.118,-3.573 2.1,-4.8 2.067,-2.583 6.55,-4.106 9.15,-6.151 1.846,-1.45 3.994,-3.753 5.8,-5.251 2.702,-2.241 6.839,-4.582 9.346,-7.039 3.725,-3.65 6.575,-10.457 10.591,-13.785 0.663,-0.549 2.005,-0.723 2.484,-1.438 0.811,-1.209 -0.091,-3.463 0.392,-4.837 1.514,-4.298 6.624,-8.324 9.282,-12.026 2.638,-3.676 4.986,-9.542 8.366,-12.55 0.814,-0.724 2.097,-1.506 3.138,-1.83 m 70.443,-242.095 c 0,0 0,0 0,0 z"
       id="path4235" />
    <path
       style="fill:none;stroke:#baa393;stroke-width:1;stroke-linecap:round;stroke-linejoin:round"
       inkscape:connector-curvature="0"
       d="m 497.197,427.217 c 0,0 0,0 0,0 -3.412,0.079 -8.115,-0.754 -11.373,0.262 -1.041,0.324 -2.324,1.106 -3.138,1.83 -3.38,3.008 -5.728,8.874 -8.366,12.55 -2.658,3.702 -7.768,7.728 -9.282,12.026 -0.483,1.374 0.419,3.628 -0.392,4.837 -0.479,0.715 -1.821,0.889 -2.484,1.438 -4.016,3.328 -6.866,10.135 -10.591,13.785 -2.507,2.457 -6.644,4.798 -9.346,7.039 -1.806,1.498 -3.954,3.801 -5.8,5.251 -2.6,2.045 -7.083,3.568 -9.15,6.151 -0.982,1.227 -1.727,3.273 -2.1,4.8 -0.92,3.762 -0.175,9.038 -0.45,12.901 -0.168,2.352 -0.294,5.519 -0.815,7.819 -0.476,2.096 -1.305,4.898 -2.39,6.753 -0.469,0.803 -1.76,1.484 -1.974,2.389 -0.149,0.634 0.303,1.489 0.416,2.13 0.14,0.792 0.403,1.845 0.415,2.649 0.018,1.17 -0.163,2.753 -0.527,3.865 -0.117,0.356 -0.463,0.755 -0.558,1.117 -0.354,1.337 -0.017,3.226 0,4.608 0.056,4.692 0.361,10.945 0.418,15.637 0.023,1.843 0.548,4.384 0,6.143 -0.421,1.356 -1.664,2.892 -2.623,3.939 -1.842,2.012 -4.668,4.551 -7.21,5.541 -3.107,1.209 -7.769,1.22 -11.081,0.834 -3.225,-0.376 -8.179,-0.822 -10.321,-3.263 -1.206,-1.374 -1.185,-4.11 -1.442,-5.92 -0.199,-1.399 -0.684,-3.368 -0.228,-4.705 0.183,-0.539 0.921,-0.992 1.139,-1.518 0.948,-2.299 0.428,-5.788 0.531,-8.273 0.104,-2.548 0.138,-5.95 0.151,-8.5 0.006,-1.034 -0.005,-2.412 -0.018,-3.445 -0.02,-1.492 0.242,-3.522 -0.107,-4.973 -0.249,-1.032 -1.325,-2.16 -1.497,-3.208 -0.184,-1.115 -0.386,-2.958 0.427,-3.742 0.376,-0.363 1.385,0.086 1.711,-0.321 0.181,-0.226 0.044,-0.673 0.054,-0.962 0.047,-1.46 0.009,-3.407 0.011,-4.867 0.002,-1.319 -0.329,-3.118 0,-4.395 0.213,-0.824 1.334,-1.66 1.318,-2.511 -0.011,-0.64 -0.799,-1.276 -1.004,-1.883 -0.14,-0.417 -0.217,-1.006 -0.251,-1.444 -0.232,-2.989 0.392,-6.985 0.502,-9.982 0.146,-3.953 0.293,-9.227 0.298,-13.184 0.004,-3.998 -0.964,-9.387 -0.27,-13.325 0.646,-3.663 2.522,-8.389 4.442,-11.575 1.626,-2.696 5.414,-5.146 6.864,-7.941 1.013,-1.952 0.923,-5.108 1.892,-7.083 1.29,-2.628 5.437,-4.819 6.005,-7.691 0.334,-1.685 -1.217,-3.867 -1.264,-5.584 -0.028,-1.054 0.502,-2.422 0.527,-3.476 0.025,-1.06 -0.33,-2.456 -0.365,-3.516 -0.07,-2.149 0.237,-5.011 0.346,-7.158 0.067,-1.316 0.623,-3.129 0.231,-4.387 -0.214,-0.689 -1.146,-1.283 -1.385,-1.963 -0.714,-2.025 1.152,-5.346 0,-7.158 -0.434,-0.682 -1.863,-0.712 -2.309,-1.386 -1.074,-1.618 -0.774,-4.57 -0.347,-6.465 0.222,-0.982 1.326,-2.011 1.501,-3.002 0.153,-0.864 -0.072,-2.064 -0.307,-2.909 -0.354,-1.271 -1.474,-2.713 -1.92,-3.954 -0.882,-2.453 -2.011,-5.868 -1.921,-8.473 0.069,-1.972 1.587,-4.364 1.808,-6.326 0.166,-1.483 -0.394,-3.487 -0.226,-4.97 0.329,-2.919 1.966,-6.567 2.824,-9.377 0.461,-1.509 1.178,-3.492 1.553,-5.025 0.733,-2.993 1.365,-7.065 1.76,-10.121 0.187,-1.446 0.23,-3.398 0.44,-4.841 0.33,-2.267 0.493,-5.443 1.54,-7.481 0.812,-1.579 2.933,-2.952 3.961,-4.4 0.786,-1.109 1.442,-2.833 2.2,-3.961 0.994,-1.48 2.334,-3.524 3.741,-4.621 0.698,-0.544 1.994,-0.714 2.64,-1.32 1.465,-1.372 1.76,-4.429 3.081,-5.94 2.794,-3.199 8.096,-5.773 11.881,-7.701 4.625,-2.358 11.143,-4.868 16.173,-6.151 8.016,-2.044 19.088,-3.332 27.359,-3.438 6.261,-0.081 14.651,0.666 20.781,1.943 3.361,0.7 7.68,2.289 10.914,3.439 3.548,1.26 7.965,3.924 11.661,4.634 2.159,0.415 5.504,1.379 7.326,0.15 2.094,-1.412 2.266,-5.465 2.841,-7.924 0.961,-4.109 1.244,-9.776 1.451,-13.99 0.441,-8.969 -0.351,-20.949 -0.405,-29.929 -0.016,-2.73 0.448,-6.407 0,-9.1 -0.198,-1.192 -0.812,-2.701 -1.213,-3.842 -0.389,-1.105 -2.038,-2.647 -1.416,-3.64 0.235,-0.374 1.12,-0.076 1.416,-0.404 1.139,-1.261 0.729,-4.128 0,-5.662 -0.387,-0.815 -1.829,-1.212 -2.225,-2.023 -0.56,-1.146 -0.738,-3.089 -0.202,-4.246 0.271,-0.585 1.279,-0.867 1.618,-1.416 1.039,-1.68 0.629,-4.584 1.213,-6.471 1.685,-5.444 4.877,-12.481 8.089,-17.189 2.935,-4.301 8.325,-8.849 11.893,-12.642 0,0 0,0 0,0 5.589,0.508 13.392,-0.321 18.63,1.693 6.239,2.399 13.397,8.425 17.69,13.55 3.405,4.066 6.754,10.54 8.28,15.62 1.257,4.185 1.659,10.122 1.505,14.49 -0.083,2.372 -0.35,5.615 -1.248,7.812 -0.987,2.416 -4.445,4.539 -5.068,7.074 -0.456,1.858 0.41,4.45 0.739,6.335 0.196,1.12 0.778,2.56 0.845,3.696 0.07,1.177 -0.397,2.728 -0.422,3.907 -0.065,3.057 0.607,7.11 0.837,10.16 0.484,6.413 0.903,14.98 1.44,21.389 0.263,3.15 0.348,7.401 1.028,10.488 0.647,2.935 2.279,6.631 3.291,9.461 1.504,4.209 3.804,9.719 5.141,13.985 1.088,3.469 2.298,8.172 3.085,11.722 0.516,2.327 1.331,5.434 1.44,7.815 0.07,1.546 -0.638,3.611 -0.412,5.142 0.224,1.507 1.517,3.243 1.851,4.73 0.785,3.486 0.857,8.343 0.513,11.9 -0.201,2.079 -1.149,4.739 -1.533,6.792 -0.587,3.135 -1.495,7.329 -1.534,10.518 -0.023,1.851 1.191,4.362 0.657,6.135 -0.284,0.944 -1.644,1.7 -1.972,2.629 -0.569,1.612 0.349,4.024 0,5.697 -0.337,1.614 -1.737,3.455 -2.191,5.04 -0.658,2.297 0.01,5.77 -1.096,7.888 -0.603,1.154 -2.434,1.931 -3.067,3.068 -1.009,1.811 -0.783,4.787 -1.398,6.767 -0.492,1.582 -1.316,3.652 -2.125,5.099 -1.112,1.989 -3.473,4.09 -4.491,6.13 -0.6,1.201 -0.683,3.107 -1.367,4.262 -1.519,2.565 -5.792,4.269 -7.104,6.945 -0.673,1.371 -0.651,3.508 -0.799,5.028 -0.218,2.242 0.661,5.439 -0.239,7.503 -0.332,0.762 -1.399,1.369 -1.836,2.076 -0.296,0.479 -0.58,1.187 -0.723,1.732 -0.449,1.709 -0.339,4.109 -0.51,5.868 -0.117,1.2 -0.438,2.791 -0.426,3.997 0.013,1.209 0.666,2.798 0.511,3.997 -0.133,1.034 -1.127,2.2 -1.276,3.231 -0.163,1.126 0.321,2.639 0.354,3.777 0.106,3.597 -0.05,8.425 -0.599,11.982 -0.243,1.577 -1.097,3.58 -1.273,5.167 -0.203,1.831 -0.094,4.314 0.15,6.14 0.102,0.764 0.476,1.74 0.573,2.505 0.374,2.954 0.67,7.025 0,9.926 -0.38,1.648 -1.81,3.521 -2.348,5.123 -0.084,0.251 -0.172,0.594 -0.213,0.854 -0.58,3.639 -0.278,8.593 -0.427,12.275 -0.086,2.113 -0.261,4.929 -0.32,7.044 -0.1,3.553 -0.024,8.294 -0.107,11.847 -0.075,3.236 -0.241,7.55 -0.402,10.783 -0.169,3.409 0.884,8.335 -0.704,11.357 -0.55,1.045 -1.823,2.176 -2.898,2.662 -3.149,1.425 -8.095,0.896 -11.514,0.392 -1.779,-0.262 -4.39,-0.589 -5.718,-1.801 -1.785,-1.63 -2.103,-5.236 -2.898,-7.519 -1.448,-4.159 -3.143,-9.787 -4.316,-14.032 -0.509,-1.842 -1.14,-4.312 -1.545,-6.179 -0.712,-3.288 -1.547,-7.701 -1.986,-11.036 -0.244,-1.846 -0.452,-4.321 -0.552,-6.18 -0.09,-1.653 -0.565,-3.925 -0.11,-5.518 0.146,-0.513 0.731,-1.033 0.882,-1.545 0.685,-2.321 0.066,-5.654 -0.125,-8.066 -0.183,-2.302 -0.873,-5.321 -1.089,-7.619 -0.444,-4.736 -0.448,-11.089 -0.605,-15.843 -0.218,-6.638 -0.091,-15.509 -0.604,-22.131 -0.277,-3.571 -1.451,-11.85 -1.451,-11.851 0,0 0,0 0,0 -0.109,3.192 -0.318,7.448 -0.363,10.642 -0.105,7.401 0.343,17.271 0.23,24.671 -0.089,5.787 1.363,13.887 -0.745,19.276 -0.55,1.404 -2.445,2.638 -2.982,4.047 -1.231,3.227 0.562,8.225 -0.533,11.501 -0.295,0.884 -1.26,1.795 -1.598,2.663 -0.991,2.549 -0.991,6.305 -1.491,8.994 -0.942,5.068 -2.432,11.779 -3.509,16.819 -0.924,4.324 -1.455,10.314 -3.146,14.399 -0.647,1.565 -1.441,3.988 -2.904,4.84 -2.071,1.206 -5.593,-0.004 -7.986,-0.121 -3.821,-0.186 -9.739,1.327 -12.705,-1.089 -1.364,-1.111 -1.822,-3.722 -2.178,-5.445 -0.742,-3.59 0,-8.555 0,-12.221 0,-3.194 0.158,-7.457 0,-10.648 -0.095,-1.93 -0.488,-4.484 -0.605,-6.413 -0.134,-2.207 -0.125,-5.159 -0.192,-7.37 -0.257,-8.551 -0.748,-19.947 -1.002,-28.498 -0.148,-4.976 0.29,-11.66 -0.413,-16.589 -0.18,-1.256 -0.807,-2.858 -0.98,-4.115 -0.226,-1.632 -0.565,-3.882 -0.196,-5.488 0.124,-0.538 0.683,-1.122 0.784,-1.665 0.372,-2.016 -0.459,-4.779 -0.98,-6.762 -0.429,-1.631 -1.791,-3.579 -2.01,-5.251 -0.154,-1.168 -0.134,-2.836 0.345,-3.912 0.298,-0.67 1.488,-1.117 1.61,-1.841 0.185,-1.089 -1.271,-2.269 -1.553,-3.336 -0.388,-1.472 -0.43,-3.543 -0.345,-5.063 0.1,-1.788 0.961,-4.082 1.093,-5.868 0.198,-2.67 0.055,-6.278 -0.402,-8.917 -0.161,-0.927 -0.698,-2.089 -0.854,-3.017 -0.312,-1.858 -0.261,-6.274 -0.261,-6.275"
       id="path4237" />
    <path
       style="fill:#766355;fill-rule:evenodd;stroke:none"
       inkscape:connector-curvature="0"
       d="m 529.287,162.783 c 0,0 0,0 0,0 0.596,7.475 1.391,17.442 1.987,24.917 0,0 0,0 0,0 4.999,-3.439 16.661,-11.464 16.663,-11.465 -5.595,-4.036 -18.648,-13.451 -18.65,-13.452 0,0 0,0 0,0 z"
       id="path4239" />
    <path
       style="fill:none;stroke:#766355;stroke-width:1;stroke-linecap:round;stroke-linejoin:round"
       inkscape:connector-curvature="0"
       d="m 547.937,176.235 c 0,0 0,0 0,0 -0.002,10e-4 -11.664,8.026 -16.663,11.465 -0.596,-7.475 -1.391,-17.442 -1.987,-24.917 0,0 0,0 0,0 0.002,0.001 13.055,9.416 18.65,13.452 M 531.274,187.7 c 0,0 0,0 0,0 m -1.987,-24.917 c 0,0 0,0 0,0"
       id="path4241" />
    <path
       style="fill:#c2a899;fill-rule:evenodd;stroke:none"
       inkscape:connector-curvature="0"
       d="m 533.261,170.426 c 0,0 0,0 0,0 0.092,3.623 0.214,8.454 0.306,12.077 0,0 0,0 0,0 2.43,-1.743 8.101,-5.809 8.102,-5.809 -2.522,-1.881 -8.407,-6.267 -8.408,-6.268 0,0 0,0 0,0 z"
       id="path4243" />
    <path
       style="fill:none;stroke:#c2a899;stroke-width:1;stroke-linecap:round;stroke-linejoin:round"
       inkscape:connector-curvature="0"
       d="m 541.669,176.694 c 0,0 0,0 0,0 -10e-4,0 -5.672,4.066 -8.102,5.809 -0.092,-3.623 -0.214,-8.454 -0.306,-12.077 0,0 0,0 0,0 10e-4,0.001 5.886,4.387 8.408,6.268 m -8.102,5.809 c 0,0 0,0 0,0 m -0.306,-12.077 c 0,0 0,0 0,0"
       id="path4245" />
    <path
       style="fill:#766355;fill-rule:evenodd;stroke:none"
       inkscape:connector-curvature="0"
       d="m 607.145,162.836 c 0,0 0,0 0,0 -5.865,4.672 -13.686,10.902 -19.552,15.574 0,0 0,0 0,0 5.647,2.223 18.819,7.408 18.821,7.409 0.219,-6.895 0.731,-22.981 0.731,-22.983 0,0 0,0 0,0 z"
       id="path4247" />
    <path
       style="fill:none;stroke:#766355;stroke-width:1;stroke-linecap:round;stroke-linejoin:round"
       inkscape:connector-curvature="0"
       d="m 606.414,185.819 c 0,0 0,0 0,0 -0.002,-10e-4 -13.174,-5.186 -18.821,-7.409 5.866,-4.672 13.687,-10.902 19.552,-15.574 0,0 0,0 0,0 0,0.002 -0.512,16.088 -0.731,22.983 m -18.821,-7.409 c 0,0 0,0 0,0 m 19.552,-15.574 c 0,0 0,0 0,0"
       id="path4249" />
    <path
       style="fill:#c2a899;fill-rule:evenodd;stroke:none"
       inkscape:connector-curvature="0"
       d="m 603.028,170.403 c 0,0 0,0 0,0 -2.953,2.101 -6.89,4.903 -9.843,7.004 0,0 0,0 0,0 2.804,1.041 9.345,3.471 9.346,3.471 0.149,-3.142 0.497,-10.474 0.497,-10.475 0,0 0,0 0,0 z"
       id="path4251" />
    <path
       style="fill:none;stroke:#c2a899;stroke-width:1;stroke-linecap:round;stroke-linejoin:round"
       inkscape:connector-curvature="0"
       d="m 602.531,180.878 c 0,0 0,0 0,0 -10e-4,0 -6.542,-2.43 -9.346,-3.471 2.953,-2.101 6.89,-4.903 9.843,-7.004 0,0 0,0 0,0 0,0.001 -0.348,7.333 -0.497,10.475 m -9.346,-3.471 c 0,0 0,0 0,0 m 9.843,-7.004 c 0,0 0,0 0,0"
       id="path4253" />
    <path
       style="fill:none;stroke:#978173;stroke-width:1;stroke-linecap:round;stroke-linejoin:round"
       inkscape:connector-curvature="0"
       d="m 425.846,420.417 c -1.512,0.001 -3.239,0.206 -4.617,-0.539 -1.997,-1.079 -3.361,-5.01 -4.157,-7.011 0.704,4.661 0.75,8.831 2.427,10.138 0.544,0.424 1.805,0.229 2.454,0.212 m -4.432,-23.344 c -1.303,1.895 -5.111,8.321 -1.478,9.456 m -2.364,-16.548 c 0,2.718 0.231,5.742 0,8.274 m -2.955,-17.434 c -2.549,0.374 -3.546,1.741 -3.546,4.137 M 437.91,398.1 c 0,2.673 -0.456,6.672 2.116,8.379 1.995,1.325 4.66,1.074 6.589,2.638 1.99,1.615 0.958,4.281 2.378,5.958 0.78,0.923 2.005,0.011 2.805,1.05 m -19.207,-27.776 c -0.294,2.787 -0.931,6.06 -0.41,8.847 0.368,1.967 2.131,2.968 1.887,5.041 M 420.18,383.326 c 0,0 0.923,5.035 2.659,5.909 0.159,0.08 0.591,0 0.592,0 m -2.66,-29.253 c -0.926,0.074 -1.864,0.345 -2.514,1.053 -0.693,0.809 -0.441,2.384 -0.441,3.379 0.358,4.899 0.218,8.717 1.076,11.145 0.295,0.835 1.362,2.251 1.288,3.039 m -7.683,-25.413 c 0.059,-1.769 1.639,-5.706 3.842,-5.319 m 22.162,14.775 c 0,4.11 -0.06,7.032 2.955,10.047 m -3.546,-32.209 c -1.286,1.815 -2.742,3.96 -2.841,6.27 -0.036,0.82 0.535,1.57 0.477,2.299 0.295,4.903 -1.162,7.522 1.773,8.865 m -4.137,-39.892 c -1.233,1.759 -3.211,4.203 -2.53,6.514 0.417,1.413 1.632,2.466 2.002,3.962 0.605,2.439 0.35,4.219 2.005,6.072 m 3.251,-23.935 c -1.809,0.143 -5.45,0.205 -6.867,1.453 -0.798,0.701 -0.898,1.662 -1.464,2.477 -0.552,0.794 -1.548,1.172 -1.421,2.276 m 137.777,124.402 c 1.915,3.193 6.099,2.371 9.306,1.934 0.787,-0.108 1.141,0.768 1.955,0.537 1.02,-0.289 0.974,-1.635 2.116,-1.825 2.029,-0.337 3.764,0.768 5.908,-0.002 1.169,-0.42 0.956,-1.687 1.764,-2.494 m -37.008,1.157 c 0.97,0.838 2.845,2.645 4.263,1.818 0.657,-0.384 1.219,-1.913 2.057,-1.871 0.531,0.026 3.644,5.758 3.625,1.327 -0.002,-0.425 0,-0.85 0,-1.274 m -27.062,-8.559 c 1.689,3.972 5.056,2.962 8.354,4.092 1.749,0.6 4.406,4.325 5.987,0.534 m -29.375,-14.803 c 1.623,1.593 1.262,3.803 2.403,5.31 0.918,1.211 2.518,0.444 3.661,1.04 0.832,0.434 0.357,1.243 0.845,1.862 0.882,1.12 2.404,1.326 3.73,1.503 M 509.498,414.18 c 0.749,2.366 0.722,8.315 4.395,8.096 m 30.3,-3.701 c -3.123,5.949 -5.19,-1.296 -8.579,-2.662 -0.714,-0.288 -2.327,0.978 -3.217,1.043 -2.539,-2.888 -3.139,-3.018 -4.63,-4.893 -0.352,-0.442 -1.047,-0.488 -0.921,-1.121 -3.505,-4.284 -3.484,-6.87 -3.47,-11.102 -0.078,0.231 -0.154,0.462 -0.231,0.693 m 54.818,22.899 c 0,1.803 -1.466,2.971 -3.183,3.13 -1.618,0.15 -1.928,-2.163 -3.048,-2.177 -0.792,-0.009 -1.647,0.91 -2.527,1.039 -2.717,0.399 -11.786,1.443 -13.34,-0.888 -2.12,0.862 -4.067,2.828 -6.584,2.828 m 47.879,-9.02 c -0.956,0.963 -2.652,3.333 -4.118,3.348 -1.111,0.011 -0.775,-1.921 -2.414,-0.977 -1.219,0.703 -2.863,3.518 -4.107,3.411 m 12.259,-19.429 c 1.772,-0.41 2.855,-0.516 4.099,0.888 0.098,-0.057 0.193,-0.117 0.288,-0.179 0.024,-0.015 0.048,-0.032 0.071,-0.049 0.023,-0.015 0.046,-0.032 0.068,-0.049 0.799,-0.642 0.748,-0.882 1.95,-0.842 m -19.66,8.789 c 1.692,-0.975 2.416,-3.32 3.456,-4.86 0.689,-1.021 1.628,-0.361 2.306,-0.975 0.662,-0.598 0.483,-2.396 0.483,-3.186 m -15.96,8.79 c 0.854,-0.318 2.583,-2.684 3.454,-2.376 0.649,0.23 0.785,1.259 1.282,1.706 0.032,0.029 0.066,0.057 0.1,0.084 0.086,0.069 0.173,0.138 0.261,0.204 0.426,-0.586 2.13,-4.102 2.767,-4.013 m -38.164,-0.694 c 1.795,0 5.344,-2.524 6.918,-1.799 1.098,0.505 -0.396,3.183 1.309,4.062 3.387,1.746 4.503,-0.475 7.272,-1.046 2.904,-0.599 6.1,2.71 6.012,-2.605 m -40.015,-24.286 c 0,3.786 0.499,12.834 6.245,12.49 0,-0.227 -0.338,4.174 0.816,4.914 1.266,0.811 3.206,0.094 4.296,1.153 0.671,0.651 0.255,1.785 0.818,2.552 1.1,1.498 4.991,1.489 6.56,0.864 m 14.341,-7.632 c -2.734,1.366 -7.006,0.719 -10.004,1.138 -0.098,-0.14 -0.191,-0.283 -0.282,-0.427 -0.026,-0.039 -0.05,-0.08 -0.074,-0.122 -0.025,-0.039 -0.05,-0.082 -0.073,-0.126 -0.025,-0.04 -0.047,-0.083 -0.067,-0.126 -0.024,-0.042 -0.043,-0.082 -0.06,-0.121 -0.019,-0.038 -0.034,-0.077 -0.048,-0.115 -0.145,-0.456 -0.032,-1.014 -0.032,-1.489 m 42.79,-4.395 c 0.575,0.739 2.059,3.886 -0.047,3.834 -0.501,-0.013 -2.407,-1.425 -2.72,-0.898 -0.515,0.869 0.323,2.101 -0.41,2.964 -1.283,1.51 -5.28,1.587 -7.076,2.192 -2.273,0.765 -3.841,2.379 -6.389,2.744 -4.861,0.696 -8.025,-0.695 -12.733,1.886 m 47.185,-16.423 c -0.833,1.257 -3.608,3.072 -5.16,2.621 -0.976,-0.285 -1.651,-1.349 -2.712,-1.367 -1.371,-0.024 -1.107,1.45 -1.966,2.13 -1.258,0.996 -3.076,-1.239 -3.808,-1.996 m -55.743,-7.864 c 2.64,1.074 5.46,2.385 8.095,2.544 m -11.103,-2.544 c -0.722,-0.674 -0.697,-1.82 -1.396,-2.428 -0.71,-0.62 -2.084,-0.693 -2.925,-1.1 -1.528,-0.74 -1.964,-1.285 -3.774,-3.411 -1.355,-1.254 -2.447,-3.304 -3.47,-4.626 m 46.492,19.891 c -2.422,0.792 -5.799,1.019 -8.558,0.232 -4.562,-1.934 -8.512,-3.053 -12.524,-5.064 0.053,-0.02 0.021,-0.009 0.098,-0.034 0.647,-0.119 1.697,0.646 2.249,0.935 m 41.634,-1.62 c -1.704,0.725 -3.493,1.588 -5.371,1.612 -0.68,0.009 -1.557,0.39 -1.8,-0.455 m 17.348,-21.28 c 2.728,-1.364 5.666,-2.257 8.073,-4.195 -0.06,-0.054 -0.121,-0.105 -0.183,-0.157 -0.034,-0.029 -0.071,-0.057 -0.107,-0.083 -0.035,-0.027 -0.072,-0.053 -0.108,-0.074 -1.042,-0.536 -2.739,-0.131 -2.587,1.271 M 598.78,373.24 c 4.435,2.443 4.299,-3.3 5.551,-5.551 m -15.034,1.619 c 1.643,1.892 0.189,6.014 -2.082,6.014 m -24.287,-2.545 c 1.731,0.85 3.537,2.921 5.368,3.295 1.635,0.333 3.294,-0.859 3.19,-2.6 3.379,1.843 5.797,1.976 8.807,2.404 0.673,0.096 2.296,0.482 2.863,0.082 0.855,-0.603 0.843,-2.025 0.821,-2.949 m -41.635,-6.476 c 2.261,2.032 4.622,4.575 7.772,5.092 2.143,0.351 4.419,-0.857 6.569,-0.004 m -17.579,-5.32 c -2.142,0.164 -4.485,-1.901 -6.939,-3.007 0,-0.077 0,-0.154 0,-0.231 -2.752,0.038 -3.269,-1.005 -5.088,-2.776 M 407.031,565.829 c -0.785,-0.991 -1.951,-2.681 -2.928,-3.407 -0.446,-0.332 -1.555,-0.627 -1.452,-1.286 -4.777,2.067 -6.282,-1.716 -9.073,-1.877 m 17.207,-1.564 c -1.669,-0.118 -5.394,-0.172 -6.57,-1.564 m 0,-10.324 c 2.946,-0.006 4.235,-1.766 6.883,-2.504 m -21.274,0 c -0.152,2.709 2.679,4.068 5.006,4.068 3.234,-3.499 3.882,1.208 5.631,0.938 m 1.877,-13.453 c 1.769,-0.007 3.538,0.02 5.306,0 0.839,-0.009 1.59,-0.428 1.89,0.626 m -6.883,-11.888 c -1.178,-1.203 -2.605,-2.222 -3.508,-3.667 -0.77,-1.232 -0.933,-2.669 -1.811,-3.842 m 13.766,6.883 c -1.142,0.024 -2.912,0.103 -3.928,-0.51 -0.91,-0.549 -1.313,-1.565 -2.329,-1.993 m -8.134,-20.961 c 2.176,0.936 8.282,-0.118 9.565,1.936 0.928,1.488 0.053,3.381 0.53,4.957 0.017,0.059 0.038,0.118 0.06,0.175 0.054,0.148 0.109,0.295 0.169,0.44 0.521,0 1.043,0 1.564,0 3.052,-0.12 6.384,-0.215 9.073,-0.313 m -15.66,-31.03 c 2.058,1.029 4.532,1.702 6.237,3.312 0.987,0.931 0.919,2.471 1.715,3.503 0.78,1.01 1.462,0.696 2.428,1.258 m 4.383,-10.61 c -4.561,0.041 -5.365,-2.817 -8.525,-5.069 -1.905,-1.357 -4.2,-1.636 -6.469,-1.62 m 33.677,12.686 c -2.089,0.01 -4.441,0.169 -6.476,-0.364 -1.105,-0.289 -1.263,-1.17 -2.168,-1.588 -0.818,-0.378 -2.234,-0.125 -3.12,-0.124 m -12.333,-27.861 c -0.571,1.637 -1.319,5.385 -0.542,6.983 0.373,0.766 1.472,0.561 1.767,1.384 m 8.163,6.531 c -0.831,-1.795 -3.462,-7.06 -5.51,-6.939 m 16.938,5.51 c -3.13,-10e-4 -1.804,-1.361 -3.372,-3.04 -0.548,-0.587 -3.827,-1.308 -4.587,-1.245 m 27.346,3.061 c -2.139,-0.012 -7.979,1.427 -8.15,-1.471 -0.003,-0.044 -0.005,-0.089 -0.006,-0.134 -0.002,-0.044 -0.003,-0.089 -0.003,-0.133 -0.002,-0.164 -0.004,-0.329 -0.002,-0.494 -0.692,-0.178 -1.328,-0.247 -2.043,-0.217 m 1.225,-13.265 c 2.264,1.324 4.475,2.619 7.045,3.22 0.845,0.197 1.987,0.406 1.934,1.474 m -20.816,-9.592 c 1.009,0.843 1.89,2.208 3.076,2.796 1.277,0.633 3.296,0.265 4.679,0.265 m -19.795,-12.652 c 1.006,1.48 1.69,3.265 3.363,4.16 2.338,1.25 6.69,-0.307 6.433,3.798 m -17.347,-15.917 c -0.157,1.294 -0.204,2.575 -0.204,3.877 m 62.243,6.122 c -3.272,-0.632 -4.758,-4.232 -7.612,-5.411 -2.692,-1.113 -7.657,0.009 -10.55,0.105 m 8.979,19.184 c -4.83,0.075 -4.29,-6.683 -9.184,-6.327 m 65.845,123.712 c 1.64,0.953 2.667,1.87 4.693,1.731 0.959,-0.066 1.896,-0.397 1.755,-1.536 m -6.252,-8.205 c -1.97,0.407 -8.052,1.614 -7.815,-1.564 m 2.93,-8.791 c 3.221,2.55 5.239,1.812 8.908,1.724 0.471,-0.011 1.097,0.743 1.057,1.206 m -9.119,-16.155 c 1.026,5.233 6.775,2.968 9.956,3.18 m 8.712,-17.7 c -2.586,2.586 -9.876,3.666 -13.091,1.904 -1.475,-0.808 -1.222,-2.679 -2.954,-3.297 -2.145,-0.765 -7.187,0.995 -7.187,-2.894 m 18.807,-3.042 c 0.249,1.115 0.468,2.355 1.369,3.143 1.364,1.194 4.893,2.186 5.407,-0.239 m -8.902,-11.031 c -2.062,0 -5.309,-0.386 -6.982,-1.662 -1.028,-0.784 -1.537,-2.704 -2.741,-3.13 -2.024,-0.718 -5.502,0.477 -7.05,-0.631 -1.861,-1.333 -0.264,-5.289 -4.199,-5.289 m 20.86,0.113 c 1.459,0.787 2.264,2.411 3.93,2.933 0.665,0.208 3.449,-0.03 3.737,0.337 m -20.296,-18.153 c 1.041,1.04 1.467,2.827 2.824,3.548 1.329,0.706 4.319,0.834 5.803,0.672 0.546,-0.06 1.285,-0.845 1.716,-0.726 2.116,0.585 3.141,3.046 5.443,3.045 m -23.453,-8.569 c 1.255,1.427 2.002,4.594 3.609,5.542 0.695,0.41 1.812,0.209 2.592,0.208 m 14.359,-9.671 c -0.027,3.117 2.561,3.346 5.019,3.346 m -23.167,-12.742 c 0.15,1.476 4.126,3.077 5.148,3.99 m 14.029,-4.376 c 1.803,0.591 7.852,5.059 7.852,1.673 m -18.148,-6.049 c 1.232,0.511 2.928,0.701 4.247,0.643 m -9.396,-4.247 c 1.329,0.259 2.834,0.771 4.119,1.159 m -19.178,-13 c 0.933,0 2.088,3.102 2.704,3.771 1.032,1.121 2.596,0.041 3.474,1.377 m 8.495,-11.198 c -2.637,0 -5.727,0.171 -7.907,-1.621 -1.819,-1.496 -2.262,-5.2 -5.479,-5.201 m 28.574,19.05 c -1.123,0.291 -3.748,1.01 -4.517,-0.21 -0.43,-0.682 -0.102,-1.728 -0.727,-2.288 -0.844,-0.757 -2.764,-0.225 -3.812,-0.453 -0.471,-0.103 -0.899,-0.687 -1.37,-0.653 m 30.376,22.524 c 1.765,0.556 3.868,0.9 5.92,0.901 2.642,0.302 3.644,1.84 5.624,1.238 1.229,-0.374 1.918,-1.407 3.35,-1.249 1.23,0.136 2.195,1.466 3.383,1.813 4.026,-0.615 6.515,-0.702 9.782,-0.772 -0.002,-0.086 0,-0.172 0,-0.258 m -33.594,-14.544 c 0,1.216 -2.494,1.131 -3.323,1.177 -1.158,0.063 -3.498,0.509 -4.441,-0.353 -0.524,-0.479 -0.256,-1.675 -0.907,-1.908 -0.808,-0.289 -2.778,-0.579 -3.17,0.441 m 31.277,3.99 c -2.748,0.47 -6.961,1.158 -9.658,0.287 -0.978,-0.316 -1.239,-1.263 -2.045,-1.754 -1.042,-0.634 -2.345,-0.745 -3.485,-1.107 m 28.831,2.702 c -0.774,1.289 -4.037,2.314 -5.451,2.038 -0.789,-0.154 -1.357,-0.972 -2.169,-0.926 -1.156,0.066 -1.794,1.326 -2.831,1.637 -0.907,0.273 -2.011,-0.446 -2.806,-0.818 m 20.207,-3.604 c -0.882,0.441 -1.31,1.534 -2.268,1.933 -0.779,0.324 -1.587,-0.038 -2.365,-0.002 m -3.105,22.092 c 0.334,-1.987 2.454,-2.916 4.343,-2.81 m -12.094,3.066 c 0.853,1.312 2.804,3.107 4.391,3.395 0.623,0.112 2.167,0.288 2.167,-0.499 m -3.492,3.832 c 0.438,0.501 1.57,2.268 2.353,2.059 1.232,-0.328 2.063,-1.125 3.495,-1.26 0.332,-0.031 1.308,-0.2 1.222,0.394 m -26.404,-9.965 c 1.003,2.414 1.856,6.328 5.288,5.573 1.14,-0.251 2.665,-1.903 3.75,-1.622 1.603,0.415 1.54,2.843 3.398,3.118 m -12.776,6.303 c 0.997,0.498 2.357,0.9 3.227,1.577 1.234,0.962 0.493,2.031 2.565,2 m 12.094,0.851 c -1.068,0.641 -2.418,1.529 -3.711,1.058 -0.602,-0.22 -0.994,-0.883 -1.619,-1.013 -0.795,-0.167 -1.629,0.236 -2.421,0.211 m 16.779,0.511 c -1.553,1.53 -3.378,1.789 -5.451,1.789 m -4.131,5.993 c -2.312,-0.128 -4.81,-0.251 -7.056,-0.844 -0.847,-0.224 -1.552,-1.082 -2.39,-1.184 -1.076,-0.13 -1.881,1.099 -2.957,1.216 -2.319,0.252 -4.007,-0.675 -6.139,-1.167 m 4.687,10.312 c 0.286,2.782 2.375,2.354 4.584,2.396 m 3.958,0.417 c 1.418,1.096 2.649,2.48 4.597,2.306 1.477,-0.132 4.403,-2.158 5.716,-0.64 m -7.586,5.508 c -2.187,-0.078 -4.318,-1.478 -6.356,-1.494 -0.883,-0.007 -0.494,1.707 -1.104,1.649 -2.207,-0.211 -3.065,-4.491 -4.465,-1.174 m 13.148,4.281 c 0.436,1.594 3.278,2.854 4.689,2.854 m -12.129,4.79 c -2.007,1.141 -5.807,3.294 -7.936,1.085 -0.019,-0.022 -0.038,-0.048 -0.055,-0.074 -0.02,-0.026 -0.038,-0.053 -0.054,-0.08 -0.017,-0.025 -0.032,-0.05 -0.044,-0.073 -0.036,-0.061 -0.021,-0.034 -0.043,-0.073 0.227,-0.108 0.452,-0.201 0.691,-0.275 m 10.295,0.917 c 1.635,1.09 2.905,2.697 4.571,3.786 0.408,0.268 1.39,1.047 1.917,0.784 0.513,-0.255 0.644,-1.317 0.922,-1.805 0.16,-0.279 1.049,-1.005 1.049,-1.134 m -16.919,10.192 c 3.801,4.276 6.307,1.964 10.975,1.557 1.896,-0.166 3.791,1.004 5.231,-0.436 m -0.204,15.493 c -1.645,0 -3.52,1.045 -5.121,0.396 -1.17,-0.474 -1.581,-2.638 -2.932,-2.733 -0.749,-0.053 -0.968,0.969 -1.621,1.209 -1.562,0.574 -3.455,0.924 -5.105,0.924 m 18.652,-7.848 c 0,0.898 -2.355,3.091 -3.274,3.037 -0.631,-0.038 -0.651,-0.84 -1.264,-0.791 -0.021,0.002 -0.042,0.007 -0.063,0.012 -0.022,0.004 -0.045,0.01 -0.068,0.016 -0.023,0.005 -0.045,0.012 -0.067,0.019 -0.022,0.006 -0.042,0.012 -0.06,0.019 -0.019,0.005 -0.035,0.011 -0.05,0.016 -0.039,0.014 -0.022,0.008 -0.046,0.016 0,0.068 0,0.136 0,0.204 M 533.949,350.433 c 1.065,5.837 6.129,6.84 11.074,6.84 m 17.588,2.28 c -0.722,1.607 -3.097,1.764 -4.628,1.933 -4.09,0.454 -8.403,0.387 -12.309,0.672 m 45.924,-5.211 c -3.883,0.805 -9.42,1.479 -13.353,3.583 -2.462,0.098 -5.637,2.04 -7.55,2.399 -0.943,0.177 -2.215,0.727 -2.547,-0.445 m 38.433,-17.914 c -0.903,6.165 -8.021,4.21 -12.051,6.188 m -56.56,-7.367 c 6.557,2.941 11.887,6.763 19.211,6.763 m 18.749,-5.379 c -0.77,1.024 -3.484,4.389 -4.895,4.224 -1.451,-0.17 -2.358,-1.458 -4.018,-1.458 m 34.579,-10.758 c -1.691,0.845 -4.423,2.743 -6.609,2.612 -0.567,0.524 -2.245,3.57 -4.167,3.464 -0.738,-0.04 -1.737,-1.255 -2.299,-0.936 -1.665,0.946 -2.31,3.377 -4.154,4.172 -0.962,0.415 -6.098,0.127 -5.824,1.599 m 28.585,-16.597 c -1.375,2.836 -2.172,2.965 -5.071,3.073 m -56.864,3.689 c 3.172,-0.331 6.503,-2.632 9.67,-2.272 2.08,0.237 2.522,2.672 4.802,2.76 1.688,0.066 2.177,-1.97 3.545,-2.036 1.023,-0.05 1.188,1.081 1.962,1.394 m -24.435,-16.752 c -2.419,1.935 -5.021,6.332 -2.451,8.847 0.769,0.753 2.403,0.143 3.065,0.989 m 62.396,-7.838 c -1.839,0.307 -3.794,2.671 -5.294,3.714 -1.185,0.824 -2.745,0.362 -4.034,0.925 -2.599,1.133 -3.381,3.199 -6.348,3.199 m -14.907,-2.151 c 3.496,0.499 3.824,-2.69 6.588,-4.047 1.594,-0.783 2.781,1.09 4.394,0.982 1.255,-0.084 1.991,-1.458 3.311,-1.392 m -38.114,-3.074 c 4.537,1.315 8.617,-1.162 12.909,0.154 m 36.379,-10.518 c 0.474,-1.134 0.565,-2.156 0.562,-3.374 m -12.559,7.123 c 0.564,-0.89 3.714,-4.424 4.663,-4.336 1.149,0.107 0.254,1.981 1.523,1.712 1.336,-1.387 -0.003,-5.35 3.186,-4.873 m -17.245,8.247 c 2.822,-0.661 6.352,-1.709 8.623,-3.561 0,0.062 0,0.125 0,0.187 m -17.058,1.875 c 0,0 0.137,0.062 0.192,0.096 0.435,0.263 0.94,0.722 1.343,1.031 0.371,0.285 0.848,0.687 1.236,0.948 0.175,0.118 0.399,0.306 0.603,0.361 0.163,0.044 0.562,0 0.562,0 0,0 0,-0.187 0,-0.187 m -34.49,-10.31 c 1.269,1.968 3.949,3.006 6.373,3 3.727,1.312 6.781,0.063 9.21,0.882 1.044,0.352 1.213,1.301 2.01,1.863 0.539,0.379 1.298,0.203 1.901,0.441 m -4.912,-11.865 c -1.982,0.29 -5.442,3.067 -5.44,-0.929 -1.601,-0.488 -1.941,-1.306 -2.629,-1.115 -2.034,0.563 -3.74,0.675 -6.525,-0.212 0.114,0.364 0.26,0.709 0.42,1.055 1.276,-0.072 2.495,-0.188 3.692,-0.657 m 38.476,2.919 c -1.829,0.61 -3.119,2.6 -5.267,2.476 -1.979,-0.114 -2.24,-2.283 -4.586,-1.87 -2.213,0.39 -2.048,2.794 -4.414,2.93 -4.205,0.243 -5.605,-4.494 -9.615,-0.484 m 38.609,-5.971 c -0.955,1.062 -1.986,2.173 -3.549,1.799 -0.638,-0.153 -1.538,-0.972 -2.188,-0.784 -0.724,0.21 -0.505,2.157 -1.532,1.962 -1.165,-0.221 -0.671,-2.098 -2.019,-2.048 m -16.451,-7.297 c 1.642,0 3.174,0.75 4.81,0.133 0.769,-0.29 2.13,-2.081 2.89,-1.9 1.438,0.342 1.974,3.885 3.843,3.505 1.264,-0.257 1.214,-2.448 2.34,-3.048 2.188,-1.164 3.421,0.76 5.316,0.36 1.485,-0.313 2.157,-2.541 3.886,-2.898 m -39.537,0.398 c 1.872,1.594 3.739,0.907 5.882,1.226 0.549,0.081 0.983,0.979 1.415,0.897 m -20.299,-4.776 c 1.453,2.641 5.559,3.516 8.318,3.035 1.003,-0.175 2.241,-1.1 3.225,-1.045 m 28.917,-12.898 c 1.055,0.605 3.995,3.904 5.442,2.417 0.556,-0.571 0.629,-2.971 0.779,-3.769 m -23.124,2.974 c 0.001,1.788 1.096,4.276 3.383,2.694 0.559,-0.386 0.595,-1.574 0.968,-1.772 0.443,-0.235 1.906,1.723 1.869,2.053 m -21.5,-6.491 c 0,3.266 0.921,8.374 5.545,5.616 0.707,-0.422 0.523,-2.341 1.068,-2.419 0.71,-0.103 1.418,0.977 2.002,1.292 1.039,0.56 1.995,0.515 3.149,0.515 m -18.796,-7.438 c 0.733,1.215 2.563,2.298 4.057,2.164 m 1.352,-10.953 c -1.346,-1.181 -3.135,-1.783 -4.432,-2.883 -0.654,-0.555 -0.571,-1.418 -1.368,-1.949 -1.185,-0.789 -2.797,-1.086 -3.864,-2.016 -0.107,-0.099 -0.213,-0.2 -0.316,-0.303 0.027,-0.09 0.059,-0.177 0.091,-0.265 0.015,-0.043 0.034,-0.088 0.055,-0.128 0.262,-0.446 0.832,-0.601 1.315,-0.57 m 18.796,9.872 c -2.699,-0.56 -5.807,-0.247 -6.228,-3.858 -0.003,-0.027 -0.003,-0.057 -0.003,-0.087 -10e-4,-0.03 10e-4,-0.061 0.002,-0.089 0.003,-0.053 0.005,-0.106 0.009,-0.158 -0.045,0 -0.09,0 -0.135,0 m 12.305,5.409 c -2.298,-0.248 -6.22,-1.687 -6.22,-4.327 m 11.764,3.245 c -2.393,0 -3.359,-0.403 -5.003,-2.164 m 24.205,3.11 c -1.506,10e-4 -3.248,0.409 -4.705,-0.098 -1.09,-0.379 -1.524,-1.544 -2.765,-1.65 -1.819,-0.155 -5.679,3.552 -7.2,0.729 -0.353,-0.655 -0.511,-1.391 -0.746,-2.091 m 20.96,-4.868 c -0.717,0.329 -1.041,1.33 -1.811,1.55 -1.15,0.33 -2.015,-0.552 -2.922,-0.468 m 1.894,-9.33 c -2.714,0.678 -5.328,0.811 -8.114,0.811 m -6.491,3.786 c 1.496,0.214 2.399,1.905 3.799,2.169 1.188,0.223 2.826,-0.824 4.045,-0.952 m -20.419,-0.946 c 2.571,1.028 4.392,7.05 7.572,3.515 m -17.985,-5.408 c 0.964,1.968 2.584,4.265 4.932,4.544 0.702,0.083 2.163,0.251 2.468,-0.614 0.01,-0.032 0.016,-0.068 0.019,-0.105 0.007,-0.037 0.01,-0.075 0.011,-0.111 0.005,-0.035 0.006,-0.069 0.006,-0.099 0.002,-0.082 10e-4,-0.048 0.002,-0.099 0.27,-10e-4 0.541,0 0.811,0 m -23.258,-12.576 c -0.029,1.896 0.841,3.208 2.569,3.786 0,0.045 0,0.09 0,0.135 2.401,0 2.527,2.898 3.553,3.512 1.816,1.087 4.071,0.639 5.642,2.438"
       id="path4255" />
    <path
       style="fill:none;stroke:#978173;stroke-width:1;stroke-linecap:round;stroke-linejoin:round"
       inkscape:connector-curvature="0"
       d="m 429.069,417.483 c 0.322,3.409 0.213,7.201 1.149,10.5 0.3,1.059 1.252,2.866 2.59,2.866 M 536.059,309.267 c 0,10e-4 -3.828,3.904 -4.404,6.082 -0.048,0.183 0,0.629 0,0.629 m -0.419,2.937 c 0,0 -1.449,2.253 -1.678,3.355 -0.064,0.308 -0.127,0.761 0,1.049 0.072,0.163 0.419,0.419 0.419,0.419 m -2.097,3.356 c 0,0 2,3.249 2.307,4.823 0.06,0.309 0,1.049 0,1.049 0,0 0.21,0 0.21,0 m -3.985,1.258 c 1.166,0.939 3.981,2.673 3.775,4.405 m 0.629,8.598 c -2.036,0.453 -4.911,-0.255 -6.501,-1.887 -0.21,-1.818 -0.46,-3.675 -0.63,-5.033 m 15.419,25.994 c -2.142,0.164 -4.485,-1.901 -6.939,-3.007 0,-0.077 0,-0.154 0,-0.231 -2.752,0.038 -3.269,-1.005 -5.088,-2.776 0.261,1.165 1.754,1.598 2.481,1.831 m -9.647,-7.131 c 1.258,0 2.642,0 3.774,0 m -7.549,-17.407 c -2.855,4.806 -4.688,8.816 0.354,12.614 0.839,0.632 2.098,1.954 3.211,1.857 m -3.146,-27.055 c 0.21,1.958 0.44,4.111 0.629,5.873 m 0.21,-14.052 c -1.189,1.888 -3.565,5.663 -3.565,5.663 0,0 0.432,0.181 0.629,0.21 0.062,0.009 0.209,0 0.209,0 m 5.453,-18.456 c -1.52,3.489 -3.985,5.944 -3.984,9.857 m -17.167,-13.76 c -0.27,3.006 -0.557,6.667 -0.557,10.02 0.841,2.725 -2.412,4.73 -3.179,7.154 -0.819,2.587 0.397,3.979 2.622,3.979 0.65,5.289 1.423,9.55 1.949,13.082 m 25.606,34.233 c 0.093,1.114 0.195,2.339 0.278,3.341 m 12.028,8.502 c -0.722,-0.674 -0.697,-1.82 -1.396,-2.428 -0.71,-0.62 -2.084,-0.693 -2.925,-1.1 -1.528,-0.74 -1.964,-1.285 -3.774,-3.411 -1.355,-1.254 -2.447,-3.304 -3.47,-4.626 -1.793,-0.052 -3.238,0.488 -4.638,0.557 -0.083,0.004 -0.195,-0.006 -0.278,0 -0.507,0.036 -1.168,0.359 -1.67,0.279 -3.5,-0.556 -9.74,-6.679 -9.741,-6.68 m -19.205,-23.379 c 1.105,2.898 2.954,10.288 8.072,7.236 -0.075,4.701 1.777,9.663 6.277,11.882 1.056,0.52 2.328,0.319 3.464,0.643 0,0.185 0,0.371 0,0.556 m 12.187,24.628 c 0,-3.282 -4.495,-1.533 -6.566,-0.821 0.835,-2.267 4.098,-2.398 5.79,-3.489 m -15.64,-5.745 c 0.253,1.407 0.373,3.585 1.488,4.608 0.816,0.748 2.191,0.603 2.823,1.56 0.942,1.426 1.226,4.051 2.05,5.734 m -19.289,-20.521 c 1.582,3.371 2.529,9.127 7.182,9.029 m -11.492,-16.006 c -1.89,1.575 -0.497,6.415 0.064,8.363 0.219,0.759 0.763,2.382 1.783,2.308 m -15.595,-34.474 c 0,3.429 -2.339,6.952 0.616,10.26 1.264,3.055 3.357,5.668 4.514,8.208 m -10.465,-23.804 c 0.009,1.322 -0.783,4.331 0.176,5.403 0.475,0.53 1.66,0.626 2.286,0.959 m 5.541,-21.341 c -4.739,4.167 -1.252,8.247 4.104,8.208 m -2.463,-20.931 c -2.135,1.861 -7.219,5.722 -5.594,9.14 0.292,0.613 1.246,0.631 1.695,1.12 m 2.052,-16.827 c -1.838,0.771 -2.667,3.325 -2.667,5.131 m 37.294,97.525 c 2.413,-0.001 4.023,-0.083 6.205,-1.182 m -23.344,-13.297 c 3.578,2.34 8.81,4.763 8.569,9.751 m -23.048,-23.935 c 0.587,3.599 1.033,8.214 3.345,11.141 0.951,1.206 2.822,1.638 3.451,2.452 m -13.297,-21.571 c -0.584,2.927 -0.49,6.086 -0.549,9.062 -0.019,0.98 -0.42,2.563 0.019,3.451 0.851,1.722 3.248,2.468 4.962,2.852 m -11.228,-30.14 c -3.94,4.39 -0.293,13.975 3.25,17.434 m -9.751,-25.117 c -0.223,2.182 -3.483,10.267 1.182,9.751 m -8.274,-37.527 c -2.119,1.688 -2.759,6.594 -1.65,8.989 0.456,0.985 1.589,1.283 2.08,2.236 0.899,1.743 0.08,4.361 3.116,4.14 m -3.251,-26.299 c -3.164,0.466 -2.955,4.751 -2.955,7.092 m 40.778,105.196 c 3.807,1.534 6.511,5.935 10.638,5.614 m -18.911,-12.706 c 0.195,3.825 1.245,10.981 6.5,10.638 m -12.41,-16.843 c 0,2.637 -0.602,6.093 0.354,8.573 0.217,0.563 1.037,2.461 1.714,2.36 m -14.183,-25.708 c -0.465,2.654 -2.125,7.565 -0.389,9.978 0.994,1.382 3.05,1.237 3.847,2.781 0.975,1.89 -0.096,3.605 1.565,5.266 m -15.957,-25.412 c -0.995,2.558 -3.039,7.165 -1.703,9.862 0.455,0.919 1.847,1.806 2.59,2.548 m -13.593,33.982 c 0.912,3.356 2.536,8.149 5.095,10.59 1.1,1.049 3.225,1.114 4.065,2.116"
       id="path4257" />
    <path
       style="fill:#050908;fill-rule:evenodd;stroke:#050908;stroke-width:1;stroke-linecap:round;stroke-linejoin:round"
       inkscape:connector-curvature="0"
       d="m 546.677,212.745 c 2.471,0 4.198,1.779 4.198,3.737 0,1.958 -1.727,3.737 -4.198,3.737 -2.471,0 -4.198,-1.779 -4.198,-3.737 0,-1.958 1.727,-3.737 4.198,-3.737 z"
       id="path4259" />
    <path
       style="fill:#050908;fill-rule:evenodd;stroke:#050908;stroke-width:1;stroke-linecap:round;stroke-linejoin:round"
       inkscape:connector-curvature="0"
       d="m 588.196,212.468 c 2.471,0 4.198,1.779 4.198,3.737 0,1.958 -1.727,3.737 -4.198,3.737 -2.471,0 -4.198,-1.779 -4.198,-3.737 0,-1.958 1.727,-3.737 4.198,-3.737 z"
       id="path4261" />
    <path
       style="fill:#ebcfc3;fill-rule:evenodd;stroke:#ebcfc3;stroke-width:1;stroke-linecap:round;stroke-linejoin:round"
       inkscape:connector-curvature="0"
       d="m 558.771,223.805 c -1.079,0.975 -1.86,2.99 -1.939,4.442 -0.071,1.293 1.098,2.844 1.251,4.13 0.333,2.806 -1.946,6.796 -0.813,9.385 1.071,2.45 4.429,4.798 7.007,5.507 2.279,0.626 5.763,0.222 7.822,-0.939 2.073,-1.17 4.103,-4.007 4.88,-6.257 0.718,-2.076 -0.19,-5.139 0.063,-7.321 0.172,-1.488 1.298,-3.4 1.064,-4.88 -0.329,-2.074 -1.872,-4.898 -3.692,-5.945 -2.36,-1.356 -6.351,0 -9.073,0 0,0 0,0 0,0 -0.043,-0.03 -5.049,0.503 -6.57,1.878 z"
       id="path4263" />
    <path
       style="fill:none;stroke:#0e0f11;stroke-width:1;stroke-linecap:round;stroke-linejoin:round"
       inkscape:connector-curvature="0"
       d="m 566.597,238.306 c 1.531,4.1 6.93,4.575 9.992,1.332 m -9.77,-7.904 c 0.146,2.129 0.186,5.347 -0.576,7.42 -1.534,4.17 -6.479,1.108 -8.172,-0.537"
       id="path4265" />
    <path
       style="fill:#9d877a;fill-rule:evenodd;stroke:#9d877a;stroke-width:1;stroke-linecap:round;stroke-linejoin:round"
       inkscape:connector-curvature="0"
       d="m 573,162.685 c 1.966,-0.199 4.415,1.415 6.376,1.658 2.544,0.315 6.059,-0.755 8.545,-0.128 2.99,0.755 6.504,3.193 8.927,5.102 4.382,3.453 8.586,9.794 12.497,13.772 1.374,1.397 3.752,2.807 4.73,4.504 1.158,2.011 1.251,5.269 1.73,7.539 0.28,1.33 0.654,3.105 0.865,4.448 0.093,0.591 0.261,1.38 0.247,1.978 -0.043,1.817 -0.895,4.146 -1.236,5.932 -0.45,2.364 0.266,6.133 -1.359,7.908 -1.204,1.315 -3.902,1.716 -5.684,1.731 -3.916,0.031 -8.691,-2.83 -12.358,-4.202 -2.399,-0.898 -5.388,-2.764 -7.909,-3.213 -1.825,-0.326 -4.356,0.461 -6.179,0.124 -2.01,-0.373 -4.292,-2.222 -6.302,-2.596 -3.686,-0.685 -8.732,0.629 -12.481,0.618 -0.854,-0.002 -1.99,-0.157 -2.843,-0.123 -2.619,0.104 -6.101,0.623 -8.65,1.235 -3.397,0.817 -7.891,2.233 -10.998,3.831 -1.921,0.988 -3.86,3.47 -5.932,4.078 -3.602,1.057 -9.196,0.95 -12.481,-0.865 -1.359,-0.75 -2.739,-2.522 -3.337,-3.954 -0.916,-2.194 0.526,-5.762 -0.494,-7.909 -0.327,-0.687 -1.61,-1.103 -1.73,-1.854 -0.314,-1.96 2.857,-3.714 3.583,-5.561 0.785,-1.996 0.256,-5.135 1.236,-7.044 0.504,-0.98 1.764,-1.873 2.472,-2.718 1.018,-1.217 2.077,-3.094 3.213,-4.202 2.23,-2.176 6.005,-4.101 8.526,-5.932 1.84,-1.335 4.112,-3.374 6.047,-4.568 1.84,-1.134 4.42,-2.475 6.459,-3.192 1.616,-0.569 4.001,-0.574 5.569,-1.263 1.511,-0.663 2.969,-2.585 4.529,-3.118 1.941,-0.664 4.784,-0.421 6.831,-0.297 0.9,0.054 2.08,0.312 2.971,0.445 0,0 0,0 0,0 -0.03,0.04 3.097,-2.01 4.62,-2.164 z"
       id="path4267" />
    <path
       style="fill:none;stroke:#b29c8e;stroke-width:1;stroke-linecap:round;stroke-linejoin:round"
       inkscape:connector-curvature="0"
       d="m 528.841,210.577 c -1.439,-1.079 -2.99,-1.604 -4.082,-3.155 -1.676,-2.382 -0.569,-6.6 2.068,-7.795 m 12.083,7.552 c -2.145,0.001 -5.973,0.059 -6.942,-2.302 -0.528,-1.286 -0.223,-2.534 -0.233,-3.865 m 13.971,5.664 c -2.95,0 -6.483,-0.602 -5.434,-4.259 0.121,-0.421 -0.045,-1.403 0.274,-1.657 m 10.195,2.769 c -1.756,0.415 -3.86,0.316 -5.355,-0.846 -0.771,-0.599 -1.138,-2.768 -0.309,-3.433 m 14.348,2.139 c -1.445,0.137 -4.378,-0.104 -5.251,-1.557 -0.386,-0.642 -0.161,-1.876 -0.161,-2.596 m 22.781,2.895 c -2.563,-0.001 -6.221,0.932 -8.609,-0.115 0.044,-0.136 0.092,-0.27 0.144,-0.403 0.453,-1.043 1.039,-1.246 1.039,-2.503 m 43.171,6.671 c -0.583,2.039 -4.484,4.402 -6.47,2.581 -0.699,-0.641 -0.373,-2.44 -0.98,-2.823 -3.525,4.112 -3.412,0.186 -4.932,-1.983 -0.985,2.158 -2.96,5.355 -6.202,2.959 -0.621,-0.458 -1.296,-3.016 -2.214,-2.91 -0.601,0.07 -1.067,1.782 -1.888,2.05 -3.322,1.084 -5.381,-3.534 -5.381,-5.916 m 23.158,-8.181 c 0,1.072 -0.093,2.19 0.062,3.253 0.082,0.557 0.465,1.085 0.442,1.656 m -33.731,-6.419 c 0.61,1.22 0.479,3.096 1.378,4.133 2.545,2.935 4.178,-1.929 4.581,-3.55 1.119,1.152 2.097,10.579 3.626,3.036 0.15,-0.738 0.109,-1.501 0.301,-2.228 1.575,0.157 2.154,4.271 4.587,4.529 1.525,0.162 1.543,-3.122 2.951,-3.8 3.068,-1.478 3.476,1.278 5.231,1.278 m -35.997,-4.782 c 0.061,1.102 0.138,3.03 1.079,3.791 1.959,1.584 4.653,-0.548 5.089,-2.407 m -28.571,-3.65 c 0,2.194 -0.728,6.184 1.366,7.643 2.798,1.951 9.279,-0.606 8.435,-4.602 -2.728,1.965 1.35,8.075 3.821,2.071 0.833,2.026 1.089,3.446 3.495,3.446 m -23.284,-6.922 c 0.046,2.633 -1.936,8.455 2.517,8.433 m 6.545,-18.25 c 0.304,2.952 4.807,8.082 8.055,6.167 m 4.153,-9.691 c -1.406,0 -4.29,2.096 -3.753,3.696 0.408,1.214 3.219,2.142 4.383,2.093 m 7.426,-6.041 c -1.51,1.834 -2.737,5.888 -0.534,7.533 3.873,2.892 2.883,-3.777 4.517,-4.314 0.76,-0.249 1.007,3.146 1.439,3.597 1.364,1.421 3.032,0.911 3.01,-0.9 m 5.916,-2.644 c 0,6.484 4.098,2.659 6.873,1.437 0.654,1.466 -0.122,4.402 1.58,5.229 3.187,1.549 6.074,-1.553 8.684,-2.639 0.671,-0.279 4.511,2.83 4.511,-0.502 m -27.06,-10.95 c 0,3.102 3.373,5.112 5.566,2.451 0.458,-0.555 1.3,-3.035 2.1,-2.998 0.055,0.002 1.399,2.805 1.78,3.113 2.348,1.902 8.143,1.868 10.188,-0.301"
       id="path4269" />
    <path
       style="fill:#0e0f11;fill-rule:evenodd;stroke:none"
       inkscape:connector-curvature="0"
       d="m 566.997,233.288 c 0,0 0,0 0,0 -0.6,-0.906 -1.177,-2.309 -1.999,-3.02 -1.63,-1.41 -4.631,-1.958 -6.616,-2.798 0,0 0.088,-1.055 0.266,-1.465 0.228,-0.523 0.723,-1.137 1.155,-1.51 0.973,-0.842 2.571,-1.637 3.819,-1.954 2.376,-0.604 5.81,-0.615 8.171,0.044 1.339,0.374 3.061,1.28 4.041,2.265 0.653,0.656 1.792,1.77 1.555,2.665 -0.15,0.564 -1.599,1.11 -1.599,1.11 -1.985,0.506 -4.945,0.504 -6.617,1.688 -0.903,0.638 -2.176,2.975 -2.176,2.975 0,0 0,0 0,0 z"
       id="path4271" />
    <path
       style="fill:none;stroke:#0e0f11;stroke-width:1;stroke-linecap:round;stroke-linejoin:round"
       inkscape:connector-curvature="0"
       d="m 575.79,228.625 c 0,0 0,0 0,0 0,0 1.449,-0.546 1.599,-1.11 0.237,-0.895 -0.902,-2.009 -1.555,-2.665 -0.98,-0.985 -2.702,-1.891 -4.041,-2.265 -2.361,-0.659 -5.795,-0.648 -8.171,-0.044 -1.248,0.317 -2.846,1.112 -3.819,1.954 -0.432,0.373 -0.927,0.987 -1.155,1.51 -0.178,0.41 -0.266,1.465 -0.266,1.465 1.985,0.84 4.986,1.388 6.616,2.798 0.822,0.711 1.399,2.114 1.999,3.02 0,0 0,0 0,0 0,0 1.273,-2.337 2.176,-2.975 1.672,-1.184 4.632,-1.182 6.617,-1.688 m -8.793,4.663 c 0,0 0,0 0,0"
       id="path4273" />
  </g>
</svg>
