<svg height="511pt" viewBox="-10 0 511 511.99999" width="511pt" xmlns="http://www.w3.org/2000/svg"><path d="m245.503906 22c-130.742187 0-237.550781 102.40625-244.617187 231.378906l10.160156 84.910156c16.785156 55.261719 52.570313 102.253907 99.757813 133.371094l79.386718 34.070313c17.777344 4.101562 36.289063 6.269531 55.308594 6.269531 20.320312 0 40.058594-2.480469 58.9375-7.144531l72.34375-30.972657c45.53125-28.957031 80.855469-72.527343 99.371094-124.113281l14.269531-76.648437c.050781-2.035156.078125-4.074219.078125-6.121094.003906-135.308594-109.6875-245-244.996094-245zm0 0" fill="#383c6b"/><path d="m152.34375 161.402344c-64.289062 0-120.601562 34.796875-151.109375 86.542968-.484375 6.289063-.734375 12.644532-.734375 19.054688 0 26.660156 4.277344 52.320312 12.148438 76.351562-.101563-2.207031-.160157-4.421874-.160157-6.652343 0-77.113281 62.738281-139.855469 139.855469-139.855469s139.855469 62.742188 139.855469 139.855469c0 77.117187-62.738281 139.855469-139.855469 139.855469-15.972656 0-31.324219-2.695313-45.632812-7.648438 26.179687 18.027344 56.03125 31.097656 88.210937 37.855469 76.152344-19.074219 132.722656-88.082031 132.722656-170.0625 0-96.65625-78.636719-175.296875-175.300781-175.296875zm0 0" fill="#ffcd38"/><path d="m490.496094 267.359375c-28.03125-52.617187-83.457032-88.523437-147.121094-88.523437-91.855469 0-166.582031 74.730468-166.582031 166.582031 0 76.59375 51.964843 141.265625 122.484375 160.648437 29.726562-6.660156 57.40625-18.714844 81.964844-35.089844-11.996094 3.625-24.707032 5.582032-37.867188 5.582032-72.308594 0-131.140625-58.832032-131.140625-131.140625 0-72.308594 58.832031-131.136719 131.140625-131.136719s131.140625 58.828125 131.140625 131.136719c0 3.269531-.125 6.511719-.363281 9.71875 10.511718-27.246094 16.300781-56.835938 16.34375-87.777344zm0 0" fill="#ffcd38"/><path d="m394.71875 92.257812c-1.6875-3.109374-4.742188-5.015624-8.042969-5.015624-1.730469 0-12.804687 0-26.496093 0 1.28125 0 2.464843 1.90625 3.121093 5.015624l5.609375 26.644532h40.265625zm0 0" fill="#e8f8fc"/><path d="m326.570312 87.242188c-13.691406 0-24.765624 0-26.496093 0-3.296875 0-6.351563 1.90625-8.039063 5.015624l-14.457031 26.644532h40.261719l5.609375-26.644532c.65625-3.109374 1.84375-5.015624 3.121093-5.015624zm0 0" fill="#5bb5e7"/><path d="m340.671875 189.953125-22.832031-71.050781h-40.261719l58.828125 71.050781c1.867188 2.253906 4.417969 3.382813 6.96875 3.382813-.988281 0-1.980469-1.128907-2.703125-3.382813zm0 0" fill="#4796cd"/><path d="m368.910156 118.902344-22.828125 71.050781c-.726562 2.253906-1.71875 3.382813-2.707031 3.382813 2.550781 0 5.101562-1.128907 6.96875-3.382813l58.828125-71.050781zm0 0" fill="#a6d6eb"/><path d="m314.839844 118.902344 25.511718 71.050781c1.621094 4.511719 4.425782 4.511719 6.046876 0l25.511718-71.050781zm0 0" fill="#5bb5e7"/><path d="m365.640625 92.257812c-.730469-3.109374-2.054687-5.015624-3.488281-5.015624-2.085938 0-35.46875 0-37.554688 0-1.429687 0-2.753906 1.90625-3.488281 5.015624l-6.265625 26.644532h57.066406zm0 0" fill="#a6d6eb"/><path d="m228.019531 69.191406c-9.875-2.359375-19.785156 3.871094-22.410156 13.675782l-1.480469 5.523437c-.234375.878906-1.136718 1.398437-2.015625 1.164063l-5.519531-1.480469c-9.808594-2.628907-20.15625 2.839843-23.050781 12.570312-3.003907 10.09375 2.921875 20.613281 13.03125 23.320313 4.695312 1.257812 33.058593 8.859375 40.324219 10.804687 1.742187.46875 3.53125-.566406 3.996093-2.304687 1.957031-7.300782 9.550781-35.644532 10.804688-40.328125 2.710937-10.105469-3.433594-20.5-13.679688-22.945313zm0 0" fill="#fe505f"/><path d="m234.230469 116.773438c-7.265625-1.949219-35.628907-9.546876-40.324219-10.804688-7.265625-1.949219-12.351562-7.941406-13.53125-14.902344-3.167969 2.292969-5.640625 5.566406-6.832031 9.578125-3.003907 10.09375 2.925781 20.613281 13.03125 23.320313 4.695312 1.257812 33.058593 8.859375 40.324219 10.804687 1.742187.46875 3.53125-.566406 4-2.304687.765624-2.863282 2.398437-8.960938 4.175781-15.59375-.277344 0-.558594-.023438-.84375-.097656zm0 0" fill="#de3648"/><path d="m247.550781.339844c6.6875-1.597656 13.394531 2.621094 15.171875 9.257812l1.003906 3.738282c.15625.59375.769532.945312 1.363282.785156l3.734375-1c6.640625-1.78125 13.644531 1.921875 15.605469 8.507812 2.035156 6.835938-1.980469 13.957032-8.820313 15.789063-3.179687.851562-22.378906 5.996093-27.296875 7.3125-1.179688.316406-2.390625-.382813-2.707031-1.5625-1.324219-4.941407-6.464844-24.128907-7.3125-27.296875-1.835938-6.839844 2.324219-13.878906 9.257812-15.53125zm0 0" fill="#fe505f"/><path d="m252.289062 15.871094c-1.429687-5.332032.792969-10.765625 5.121094-13.695313-2.8125-1.894531-6.335937-2.679687-9.859375-1.835937-6.933593 1.652344-11.09375 8.691406-9.261719 15.53125.851563 3.167968 5.992188 22.359375 7.316407 27.296875.316406 1.179687 1.527343 1.878906 2.703125 1.5625 1.984375-.53125 6.289062-1.683594 10.929687-2.925781-1.714843-6.402344-6.164062-23.003907-6.949219-25.933594zm0 0" fill="#de3648"/><g fill="#ffac00"><path d="m71.730469 222.480469c-14.902344-.902344-24.488281-16.195313-18.921875-29.972657-20.941406 14.5-38.597656 33.425782-51.574219 55.4375-2.488281 32.320313 1.351563 64.691407 11.417969 95.40625-.105469-2.207031-.164063-4.421874-.164063-6.652343 0-47.117188 23.425781-88.867188 59.242188-114.21875zm0 0"/><path d="m201.460938 467.648438c-29.730469 11.1875-63.40625 12.105468-94.746094 1.257812 26.175781 18.027344 56.027344 31.101562 88.207031 37.855469 7.273437-1.824219 14.371094-4.105469 21.253906-6.804688-14.703125-2.882812-22.132812-19.425781-14.714843-32.308593zm0 0"/><path d="m212.238281 345.417969c0-57.253907 36.882813-106.050781 88.136719-123.890625-14.234375-4.457032-19.875-21.613282-11.160156-33.644532-65.347656 22.527344-112.421875 84.636719-112.421875 157.535157 0 76.59375 51.964843 141.265625 122.484375 160.644531 29.726562-6.65625 57.40625-18.710938 81.964844-35.085938-11.996094 3.621094-24.703126 5.578126-37.867188 5.578126-72.308594.003906-131.136719-58.828126-131.136719-131.136719zm0 0"/></g><path d="m280.753906 455.90625c-1.246094-13.171875-10.632812-23.964844-23.074218-27.304688-11.117188 12.722657-24.496094 23.417969-39.5 31.460938.488281 13.355469 9.320312 24.578125 21.441406 28.609375 15.3125-8.828125 29.175781-19.898437 41.132812-32.765625zm0 0" fill="#ffcd38"/></svg>